<svg version="1.1" viewBox="0.0 0.0 600.0 371.0" fill="none" stroke="none" stroke-linecap="square" stroke-miterlimit="10" width="600" height="371" xmlns:xlink="http://www.w3.org/1999/xlink" xmlns="http://www.w3.org/2000/svg"><path fill="#ffffff" d="M0 0L600.0 0L600.0 371.0L0 371.0L0 0Z" fill-rule="nonzero"/><path stroke="#333333" stroke-width="1.0" stroke-linecap="butt" d="M77.5 261.5L519.5 261.5" fill-rule="nonzero"/><path stroke="#cccccc" stroke-width="1.0" stroke-linecap="butt" d="M77.5 219.5L519.5 219.5" fill-rule="nonzero"/><path stroke="#cccccc" stroke-width="1.0" stroke-linecap="butt" d="M77.5 177.5L519.5 177.5" fill-rule="nonzero"/><path stroke="#cccccc" stroke-width="1.0" stroke-linecap="butt" d="M77.5 135.5L519.5 135.5" fill-rule="nonzero"/><path stroke="#cccccc" stroke-width="1.0" stroke-linecap="butt" d="M77.5 93.5L519.5 93.5" fill-rule="nonzero"/><path stroke="#cccccc" stroke-width="1.0" stroke-linecap="butt" d="M77.5 51.5L519.5 51.5" fill-rule="nonzero"/><clipPath id="id_0"><path d="M77.55 51.916668L519.45 51.916668L519.45 261.417L77.55 261.417L77.55 51.916668Z" clip-rule="nonzero"/></clipPath><path stroke="#000000" stroke-width="2.0" stroke-linecap="butt" stroke-opacity="0.0" clip-path="url(#id_0)" d="M107.0 261.0L98.0 261.0L98.0 259.0C98.0 257.89542 98.89543 257.0 100.0 257.0L105.0 257.0C106.10457 257.0 107.0 257.89542 107.0 259.0Z" fill-rule="nonzero"/><path fill="#4285f4" clip-path="url(#id_0)" d="M107.0 261.0L98.0 261.0L98.0 259.0C98.0 257.89542 98.89543 257.0 100.0 257.0L105.0 257.0C106.10457 257.0 107.0 257.89542 107.0 259.0Z" fill-rule="nonzero"/><path stroke="#000000" stroke-width="2.0" stroke-linecap="butt" stroke-opacity="0.0" clip-path="url(#id_0)" d="M160.0 261.0L151.0 261.0L151.0 258.0C151.0 256.89542 151.89543 256.0 153.0 256.0L158.0 256.0C159.10457 256.0 160.0 256.89542 160.0 258.0Z" fill-rule="nonzero"/><path fill="#4285f4" clip-path="url(#id_0)" d="M160.0 261.0L151.0 261.0L151.0 258.0C151.0 256.89542 151.89543 256.0 153.0 256.0L158.0 256.0C159.10457 256.0 160.0 256.89542 160.0 258.0Z" fill-rule="nonzero"/><path stroke="#000000" stroke-width="2.0" stroke-linecap="butt" stroke-opacity="0.0" clip-path="url(#id_0)" d="M213.0 261.0L204.0 261.0L204.0 254.0C204.0 252.89543 204.89543 252.0 206.0 252.0L211.0 252.0C212.10457 252.0 213.0 252.89543 213.0 254.0Z" fill-rule="nonzero"/><path fill="#4285f4" clip-path="url(#id_0)" d="M213.0 261.0L204.0 261.0L204.0 254.0C204.0 252.89543 204.89543 252.0 206.0 252.0L211.0 252.0C212.10457 252.0 213.0 252.89543 213.0 254.0Z" fill-rule="nonzero"/><path stroke="#000000" stroke-width="2.0" stroke-linecap="butt" stroke-opacity="0.0" clip-path="url(#id_0)" d="M266.0 261.0L257.0 261.0L257.0 247.0C257.0 245.89543 257.89542 245.0 259.0 245.0L264.0 245.0C265.10458 245.0 266.0 245.89543 266.0 247.0Z" fill-rule="nonzero"/><path fill="#4285f4" clip-path="url(#id_0)" d="M266.0 261.0L257.0 261.0L257.0 247.0C257.0 245.89543 257.89542 245.0 259.0 245.0L264.0 245.0C265.10458 245.0 266.0 245.89543 266.0 247.0Z" fill-rule="nonzero"/><path stroke="#000000" stroke-width="2.0" stroke-linecap="butt" stroke-opacity="0.0" clip-path="url(#id_0)" d="M319.0 261.0L310.0 261.0L310.0 225.0C310.0 223.89543 310.89542 223.0 312.0 223.0L317.0 223.0C318.10458 223.0 319.0 223.89543 319.0 225.0Z" fill-rule="nonzero"/><path fill="#4285f4" clip-path="url(#id_0)" d="M319.0 261.0L310.0 261.0L310.0 225.0C310.0 223.89543 310.89542 223.0 312.0 223.0L317.0 223.0C318.10458 223.0 319.0 223.89543 319.0 225.0Z" fill-rule="nonzero"/><path stroke="#000000" stroke-width="2.0" stroke-linecap="butt" stroke-opacity="0.0" clip-path="url(#id_0)" d="M372.0 261.0L363.0 261.0L363.0 221.0C363.0 219.89543 363.89542 219.0 365.0 219.0L370.0 219.0C371.10458 219.0 372.0 219.89543 372.0 221.0Z" fill-rule="nonzero"/><path fill="#4285f4" clip-path="url(#id_0)" d="M372.0 261.0L363.0 261.0L363.0 221.0C363.0 219.89543 363.89542 219.0 365.0 219.0L370.0 219.0C371.10458 219.0 372.0 219.89543 372.0 221.0Z" fill-rule="nonzero"/><path stroke="#000000" stroke-width="2.0" stroke-linecap="butt" stroke-opacity="0.0" clip-path="url(#id_0)" d="M425.0 261.0L416.0 261.0L416.0 92.0C416.0 90.89543 416.89542 90.0 418.0 90.0L423.0 90.0C424.10458 90.0 425.0 90.89543 425.0 92.0Z" fill-rule="nonzero"/><path fill="#4285f4" clip-path="url(#id_0)" d="M425.0 261.0L416.0 261.0L416.0 92.0C416.0 90.89543 416.89542 90.0 418.0 90.0L423.0 90.0C424.10458 90.0 425.0 90.89543 425.0 92.0Z" fill-rule="nonzero"/><path stroke="#000000" stroke-width="2.0" stroke-linecap="butt" stroke-opacity="0.0" clip-path="url(#id_0)" d="M478.0 261.0L469.0 261.0L469.0 199.0C469.0 197.89543 469.89542 197.0 471.0 197.0L476.0 197.0C477.10458 197.0 478.0 197.89543 478.0 199.0Z" fill-rule="nonzero"/><path fill="#4285f4" clip-path="url(#id_0)" d="M478.0 261.0L469.0 261.0L469.0 199.0C469.0 197.89543 469.89542 197.0 471.0 197.0L476.0 197.0C477.10458 197.0 478.0 197.89543 478.0 199.0Z" fill-rule="nonzero"/><path stroke="#000000" stroke-width="2.0" stroke-linecap="butt" stroke-opacity="0.0" clip-path="url(#id_0)" d="M118.0 261.0L109.0 261.0L109.0 259.0C109.0 257.89542 109.89543 257.0 111.0 257.0L116.0 257.0C117.10457 257.0 118.0 257.89542 118.0 259.0Z" fill-rule="nonzero"/><path fill="#ea4335" clip-path="url(#id_0)" d="M118.0 261.0L109.0 261.0L109.0 259.0C109.0 257.89542 109.89543 257.0 111.0 257.0L116.0 257.0C117.10457 257.0 118.0 257.89542 118.0 259.0Z" fill-rule="nonzero"/><path stroke="#000000" stroke-width="2.0" stroke-linecap="butt" stroke-opacity="0.0" clip-path="url(#id_0)" d="M171.0 261.0L162.0 261.0L162.0 258.0C162.0 256.89542 162.89543 256.0 164.0 256.0L169.0 256.0C170.10457 256.0 171.0 256.89542 171.0 258.0Z" fill-rule="nonzero"/><path fill="#ea4335" clip-path="url(#id_0)" d="M171.0 261.0L162.0 261.0L162.0 258.0C162.0 256.89542 162.89543 256.0 164.0 256.0L169.0 256.0C170.10457 256.0 171.0 256.89542 171.0 258.0Z" fill-rule="nonzero"/><path stroke="#000000" stroke-width="2.0" stroke-linecap="butt" stroke-opacity="0.0" clip-path="url(#id_0)" d="M224.0 261.0L215.0 261.0L215.0 254.0C215.0 252.89543 215.89543 252.0 217.0 252.0L222.0 252.0C223.10457 252.0 224.0 252.89543 224.0 254.0Z" fill-rule="nonzero"/><path fill="#ea4335" clip-path="url(#id_0)" d="M224.0 261.0L215.0 261.0L215.0 254.0C215.0 252.89543 215.89543 252.0 217.0 252.0L222.0 252.0C223.10457 252.0 224.0 252.89543 224.0 254.0Z" fill-rule="nonzero"/><path stroke="#000000" stroke-width="2.0" stroke-linecap="butt" stroke-opacity="0.0" clip-path="url(#id_0)" d="M277.0 261.0L268.0 261.0L268.0 247.0C268.0 245.89543 268.89542 245.0 270.0 245.0L275.0 245.0C276.10458 245.0 277.0 245.89543 277.0 247.0Z" fill-rule="nonzero"/><path fill="#ea4335" clip-path="url(#id_0)" d="M277.0 261.0L268.0 261.0L268.0 247.0C268.0 245.89543 268.89542 245.0 270.0 245.0L275.0 245.0C276.10458 245.0 277.0 245.89543 277.0 247.0Z" fill-rule="nonzero"/><path stroke="#000000" stroke-width="2.0" stroke-linecap="butt" stroke-opacity="0.0" clip-path="url(#id_0)" d="M330.0 261.0L321.0 261.0L321.0 225.0C321.0 223.89543 321.89542 223.0 323.0 223.0L328.0 223.0C329.10458 223.0 330.0 223.89543 330.0 225.0Z" fill-rule="nonzero"/><path fill="#ea4335" clip-path="url(#id_0)" d="M330.0 261.0L321.0 261.0L321.0 225.0C321.0 223.89543 321.89542 223.0 323.0 223.0L328.0 223.0C329.10458 223.0 330.0 223.89543 330.0 225.0Z" fill-rule="nonzero"/><path stroke="#000000" stroke-width="2.0" stroke-linecap="butt" stroke-opacity="0.0" clip-path="url(#id_0)" d="M383.0 261.0L374.0 261.0L374.0 221.0C374.0 219.89543 374.89542 219.0 376.0 219.0L381.0 219.0C382.10458 219.0 383.0 219.89543 383.0 221.0Z" fill-rule="nonzero"/><path fill="#ea4335" clip-path="url(#id_0)" d="M383.0 261.0L374.0 261.0L374.0 221.0C374.0 219.89543 374.89542 219.0 376.0 219.0L381.0 219.0C382.10458 219.0 383.0 219.89543 383.0 221.0Z" fill-rule="nonzero"/><path stroke="#000000" stroke-width="2.0" stroke-linecap="butt" stroke-opacity="0.0" clip-path="url(#id_0)" d="M436.0 261.0L427.0 261.0L427.0 92.0C427.0 90.89543 427.89542 90.0 429.0 90.0L434.0 90.0C435.10458 90.0 436.0 90.89543 436.0 92.0Z" fill-rule="nonzero"/><path fill="#ea4335" clip-path="url(#id_0)" d="M436.0 261.0L427.0 261.0L427.0 92.0C427.0 90.89543 427.89542 90.0 429.0 90.0L434.0 90.0C435.10458 90.0 436.0 90.89543 436.0 92.0Z" fill-rule="nonzero"/><path stroke="#000000" stroke-width="2.0" stroke-linecap="butt" stroke-opacity="0.0" clip-path="url(#id_0)" d="M489.0 261.0L480.0 261.0L480.0 200.0C480.0 198.89543 480.89542 198.0 482.0 198.0L487.0 198.0C488.10458 198.0 489.0 198.89543 489.0 200.0Z" fill-rule="nonzero"/><path fill="#ea4335" clip-path="url(#id_0)" d="M489.0 261.0L480.0 261.0L480.0 200.0C480.0 198.89543 480.89542 198.0 482.0 198.0L487.0 198.0C488.10458 198.0 489.0 198.89543 489.0 200.0Z" fill-rule="nonzero"/><path stroke="#000000" stroke-width="2.0" stroke-linecap="butt" stroke-opacity="0.0" clip-path="url(#id_0)" d="M129.0 261.0L120.0 261.0L120.0 255.0C120.0 253.89543 120.89543 253.0 122.0 253.0L127.0 253.0C128.10457 253.0 129.0 253.89543 129.0 255.0Z" fill-rule="nonzero"/><path fill="#fbbc04" clip-path="url(#id_0)" d="M129.0 261.0L120.0 261.0L120.0 255.0C120.0 253.89543 120.89543 253.0 122.0 253.0L127.0 253.0C128.10457 253.0 129.0 253.89543 129.0 255.0Z" fill-rule="nonzero"/><path stroke="#000000" stroke-width="2.0" stroke-linecap="butt" stroke-opacity="0.0" clip-path="url(#id_0)" d="M182.0 261.0L173.0 261.0L173.0 257.0C173.0 255.89543 173.89543 255.0 175.0 255.0L180.0 255.0C181.10457 255.0 182.0 255.89543 182.0 257.0Z" fill-rule="nonzero"/><path fill="#fbbc04" clip-path="url(#id_0)" d="M182.0 261.0L173.0 261.0L173.0 257.0C173.0 255.89543 173.89543 255.0 175.0 255.0L180.0 255.0C181.10457 255.0 182.0 255.89543 182.0 257.0Z" fill-rule="nonzero"/><path stroke="#000000" stroke-width="2.0" stroke-linecap="butt" stroke-opacity="0.0" clip-path="url(#id_0)" d="M235.0 261.0L226.0 261.0L226.0 254.0C226.0 252.89543 226.89543 252.0 228.0 252.0L233.0 252.0C234.10457 252.0 235.0 252.89543 235.0 254.0Z" fill-rule="nonzero"/><path fill="#fbbc04" clip-path="url(#id_0)" d="M235.0 261.0L226.0 261.0L226.0 254.0C226.0 252.89543 226.89543 252.0 228.0 252.0L233.0 252.0C234.10457 252.0 235.0 252.89543 235.0 254.0Z" fill-rule="nonzero"/><path stroke="#000000" stroke-width="2.0" stroke-linecap="butt" stroke-opacity="0.0" clip-path="url(#id_0)" d="M288.0 261.0L279.0 261.0L279.0 197.0C279.0 195.89543 279.89542 195.0 281.0 195.0L286.0 195.0C287.10458 195.0 288.0 195.89543 288.0 197.0Z" fill-rule="nonzero"/><path fill="#fbbc04" clip-path="url(#id_0)" d="M288.0 261.0L279.0 261.0L279.0 197.0C279.0 195.89543 279.89542 195.0 281.0 195.0L286.0 195.0C287.10458 195.0 288.0 195.89543 288.0 197.0Z" fill-rule="nonzero"/><path stroke="#000000" stroke-width="2.0" stroke-linecap="butt" stroke-opacity="0.0" clip-path="url(#id_0)" d="M341.0 261.0L332.0 261.0L332.0 254.0C332.0 252.89543 332.89542 252.0 334.0 252.0L339.0 252.0C340.10458 252.0 341.0 252.89543 341.0 254.0Z" fill-rule="nonzero"/><path fill="#fbbc04" clip-path="url(#id_0)" d="M341.0 261.0L332.0 261.0L332.0 254.0C332.0 252.89543 332.89542 252.0 334.0 252.0L339.0 252.0C340.10458 252.0 341.0 252.89543 341.0 254.0Z" fill-rule="nonzero"/><path stroke="#000000" stroke-width="2.0" stroke-linecap="butt" stroke-opacity="0.0" clip-path="url(#id_0)" d="M394.0 261.0L385.0 261.0L385.0 249.0C385.0 247.89543 385.89542 247.0 387.0 247.0L392.0 247.0C393.10458 247.0 394.0 247.89543 394.0 249.0Z" fill-rule="nonzero"/><path fill="#fbbc04" clip-path="url(#id_0)" d="M394.0 261.0L385.0 261.0L385.0 249.0C385.0 247.89543 385.89542 247.0 387.0 247.0L392.0 247.0C393.10458 247.0 394.0 247.89543 394.0 249.0Z" fill-rule="nonzero"/><path stroke="#000000" stroke-width="2.0" stroke-linecap="butt" stroke-opacity="0.0" clip-path="url(#id_0)" d="M447.0 261.0L438.0 261.0L438.0 215.0C438.0 213.89543 438.89542 213.0 440.0 213.0L445.0 213.0C446.10458 213.0 447.0 213.89543 447.0 215.0Z" fill-rule="nonzero"/><path fill="#fbbc04" clip-path="url(#id_0)" d="M447.0 261.0L438.0 261.0L438.0 215.0C438.0 213.89543 438.89542 213.0 440.0 213.0L445.0 213.0C446.10458 213.0 447.0 213.89543 447.0 215.0Z" fill-rule="nonzero"/><path stroke="#000000" stroke-width="2.0" stroke-linecap="butt" stroke-opacity="0.0" clip-path="url(#id_0)" d="M500.0 261.0L491.0 261.0L491.0 84.0C491.0 82.89543 491.89542 82.0 493.0 82.0L498.0 82.0C499.10458 82.0 500.0 82.89543 500.0 84.0Z" fill-rule="nonzero"/><path fill="#fbbc04" clip-path="url(#id_0)" d="M500.0 261.0L491.0 261.0L491.0 84.0C491.0 82.89543 491.89542 82.0 493.0 82.0L498.0 82.0C499.10458 82.0 500.0 82.89543 500.0 84.0Z" fill-rule="nonzero"/><path fill="#000000" d="M255.0625 346.4344L256.1875 346.73126Q255.82812 348.1219 254.90625 348.85626Q253.98438 349.59064 252.64062 349.59064Q251.25 349.59064 250.375 349.02814Q249.5 348.46564 249.04688 347.40314Q248.59375 346.325 248.59375 345.09064Q248.59375 343.7469 249.10938 342.7469Q249.625 341.7469 250.5625 341.23126Q251.51562 340.71564 252.65625 340.71564Q253.9375 340.71564 254.8125 341.3719Q255.70312 342.02814 256.04688 343.21564L254.92188 343.48126Q254.625 342.54376 254.04688 342.1219Q253.48438 341.6844 252.625 341.6844Q251.64062 341.6844 250.96875 342.16876Q250.3125 342.6375 250.03125 343.4344Q249.76562 344.23126 249.76562 345.09064Q249.76562 346.1844 250.07812 346.9969Q250.40625 347.8094 251.07812 348.21564Q251.75 348.6219 252.54688 348.6219Q253.5 348.6219 254.15625 348.075Q254.82812 347.52814 255.0625 346.4344ZM257.40625 346.34064Q257.40625 344.60626 258.35938 343.77814Q259.15625 343.09064 260.3125 343.09064Q261.59375 343.09064 262.40625 343.9344Q263.23438 344.7625 263.23438 346.2469Q263.23438 347.45 262.875 348.1375Q262.51562 348.825 261.8125 349.21564Q261.125 349.59064 260.3125 349.59064Q259.01562 349.59064 258.20312 348.7625Q257.40625 347.91876 257.40625 346.34064ZM258.48438 346.34064Q258.48438 347.52814 259.0 348.1219Q259.53125 348.71564 260.3125 348.71564Q261.10938 348.71564 261.625 348.1219Q262.14062 347.52814 262.14062 346.3094Q262.14062 345.15314 261.60938 344.5594Q261.09375 343.96564 260.3125 343.96564Q259.53125 343.96564 259.0 344.5594Q258.48438 345.1375 258.48438 346.34064ZM264.79688 349.45L264.79688 343.23126L265.73438 343.23126L265.73438 344.10626Q266.03125 343.6375 266.51562 343.3719Q267.0 343.09064 267.625 343.09064Q268.3125 343.09064 268.75 343.3719Q269.20312 343.65314 269.375 344.16876Q270.125 343.09064 271.29688 343.09064Q272.23438 343.09064 272.71875 343.60626Q273.21875 344.10626 273.21875 345.1844L273.21875 349.45L272.17188 349.45L272.17188 345.52814Q272.17188 344.90314 272.0625 344.6219Q271.96875 344.34064 271.70312 344.16876Q271.4375 343.9969 271.0625 343.9969Q270.40625 343.9969 269.96875 344.4344Q269.54688 344.8719 269.54688 345.84064L269.54688 349.45L268.48438 349.45L268.48438 345.40314Q268.48438 344.7 268.21875 344.35626Q267.96875 343.9969 267.39062 343.9969Q266.9375 343.9969 266.5625 344.23126Q266.1875 344.46564 266.01562 344.91876Q265.84375 345.3719 265.84375 346.21564L265.84375 349.45L264.79688 349.45ZM275.79688 351.84064L275.79688 343.23126L276.75 343.23126L276.75 344.02814Q277.09375 343.5594 277.51562 343.325Q277.95312 343.09064 278.5625 343.09064Q279.35938 343.09064 279.96875 343.4969Q280.57812 343.90314 280.875 344.65314Q281.1875 345.40314 281.1875 346.29376Q281.1875 347.2469 280.84375 348.0125Q280.51562 348.77814 279.85938 349.1844Q279.20312 349.59064 278.48438 349.59064Q277.95312 349.59064 277.53125 349.3719Q277.10938 349.1375 276.84375 348.8094L276.84375 351.84064L275.79688 351.84064ZM276.75 346.3719Q276.75 347.575 277.23438 348.15314Q277.71875 348.71564 278.40625 348.71564Q279.10938 348.71564 279.60938 348.1219Q280.10938 347.52814 280.10938 346.27814Q280.10938 345.09064 279.625 344.5125Q279.14062 343.91876 278.45312 343.91876Q277.78125 343.91876 277.26562 344.54376Q276.75 345.16876 276.75 346.3719ZM282.79688 342.075L282.79688 340.85626L283.85938 340.85626L283.85938 342.075L282.79688 342.075ZM282.79688 349.45L282.79688 343.23126L283.85938 343.23126L283.85938 349.45L282.79688 349.45ZM285.76562 349.45L285.76562 340.85626L286.82812 340.85626L286.82812 349.45L285.76562 349.45ZM293.04688 347.45L294.14062 347.575Q293.89062 348.52814 293.1875 349.0594Q292.48438 349.59064 291.40625 349.59064Q290.04688 349.59064 289.23438 348.7469Q288.4375 347.90314 288.4375 346.3875Q288.4375 344.825 289.25 343.96564Q290.0625 343.09064 291.34375 343.09064Q292.59375 343.09064 293.375 343.9344Q294.17188 344.77814 294.17188 346.325Q294.17188 346.41876 294.17188 346.60626L289.53125 346.60626Q289.59375 347.6375 290.10938 348.1844Q290.625 348.71564 291.40625 348.71564Q291.98438 348.71564 292.39062 348.41876Q292.8125 348.10626 293.04688 347.45ZM289.59375 345.7469L293.0625 345.7469Q293.0 344.95 292.67188 344.5594Q292.15625 343.95 291.35938 343.95Q290.625 343.95 290.125 344.4344Q289.64062 344.91876 289.59375 345.7469ZM295.78125 349.45L295.78125 343.23126L296.73438 343.23126L296.73438 344.16876Q297.09375 343.5125 297.39062 343.3094Q297.70312 343.09064 298.07812 343.09064Q298.60938 343.09064 299.15625 343.41876L298.79688 344.40314Q298.40625 344.16876 298.03125 344.16876Q297.67188 344.16876 297.39062 344.3875Q297.125 344.59064 297.01562 344.96564Q296.82812 345.52814 296.82812 346.1844L296.82812 349.45L295.78125 349.45ZM299.0 349.59064L301.48438 340.71564L302.32812 340.71564L299.84375 349.59064L299.0 349.59064ZM303.76562 349.45L302.78125 349.45L302.78125 340.85626L303.84375 340.85626L303.84375 343.91876Q304.51562 343.09064 305.54688 343.09064Q306.125 343.09064 306.625 343.325Q307.14062 343.54376 307.46875 343.96564Q307.8125 344.3875 308.0 344.98126Q308.1875 345.575 308.1875 346.2469Q308.1875 347.84064 307.39062 348.71564Q306.59375 349.59064 305.5 349.59064Q304.39062 349.59064 303.76562 348.66876L303.76562 349.45ZM303.75 346.29376Q303.75 347.40314 304.0625 347.90314Q304.5625 348.71564 305.40625 348.71564Q306.09375 348.71564 306.59375 348.1219Q307.10938 347.52814 307.10938 346.325Q307.10938 345.10626 306.625 344.52814Q306.14062 343.95 305.45312 343.95Q304.76562 343.95 304.25 344.5594Q303.75 345.15314 303.75 346.29376ZM313.85938 348.6844Q313.26562 349.1844 312.71875 349.3875Q312.1875 349.59064 311.5625 349.59064Q310.53125 349.59064 309.98438 349.09064Q309.4375 348.59064 309.4375 347.8094Q309.4375 347.35626 309.64062 346.98126Q309.84375 346.59064 310.1875 346.3719Q310.53125 346.1375 310.95312 346.02814Q311.25 345.9344 311.89062 345.85626Q313.15625 345.71564 313.76562 345.4969Q313.76562 345.27814 313.76562 345.23126Q313.76562 344.575 313.46875 344.3094Q313.0625 343.96564 312.26562 343.96564Q311.53125 343.96564 311.17188 344.23126Q310.8125 344.48126 310.64062 345.1375L309.60938 344.9969Q309.75 344.34064 310.07812 343.9344Q310.40625 343.52814 311.01562 343.3094Q311.625 343.09064 312.42188 343.09064Q313.21875 343.09064 313.71875 343.27814Q314.21875 343.46564 314.45312 343.7469Q314.6875 344.02814 314.78125 344.46564Q314.82812 344.73126 314.82812 345.4344L314.82812 346.84064Q314.82812 348.3094 314.89062 348.7Q314.96875 349.09064 315.17188 349.45L314.0625 349.45Q313.90625 349.1219 313.85938 348.6844ZM313.76562 346.325Q313.1875 346.5594 312.04688 346.73126Q311.39062 346.825 311.125 346.95Q310.85938 347.0594 310.70312 347.27814Q310.5625 347.4969 310.5625 347.77814Q310.5625 348.2 310.875 348.48126Q311.20312 348.7625 311.8125 348.7625Q312.42188 348.7625 312.89062 348.4969Q313.375 348.23126 313.59375 347.7625Q313.76562 347.40314 313.76562 346.71564L313.76562 346.325ZM320.85938 347.16876L321.89062 347.3094Q321.71875 348.3719 321.01562 348.98126Q320.3125 349.59064 319.29688 349.59064Q318.01562 349.59064 317.23438 348.7625Q316.46875 347.91876 316.46875 346.35626Q316.46875 345.35626 316.79688 344.60626Q317.14062 343.84064 317.8125 343.46564Q318.5 343.09064 319.3125 343.09064Q320.3125 343.09064 320.95312 343.60626Q321.60938 344.10626 321.79688 345.0594L320.76562 345.21564Q320.625 344.59064 320.25 344.27814Q319.875 343.95 319.34375 343.95Q318.54688 343.95 318.04688 344.52814Q317.54688 345.09064 317.54688 346.325Q317.54688 347.59064 318.03125 348.15314Q318.51562 348.71564 319.28125 348.71564Q319.90625 348.71564 320.3125 348.34064Q320.73438 347.96564 320.85938 347.16876ZM322.79688 349.45L322.79688 340.85626L323.85938 340.85626L323.85938 345.7625L326.34375 343.23126L327.71875 343.23126L325.32812 345.52814L327.95312 349.45L326.65625 349.45L324.59375 346.2625L323.85938 346.98126L323.85938 349.45L322.79688 349.45ZM333.04688 347.45L334.14062 347.575Q333.89062 348.52814 333.1875 349.0594Q332.48438 349.59064 331.40625 349.59064Q330.04688 349.59064 329.23438 348.7469Q328.4375 347.90314 328.4375 346.3875Q328.4375 344.825 329.25 343.96564Q330.0625 343.09064 331.34375 343.09064Q332.59375 343.09064 333.375 343.9344Q334.17188 344.77814 334.17188 346.325Q334.17188 346.41876 334.17188 346.60626L329.53125 346.60626Q329.59375 347.6375 330.10938 348.1844Q330.625 348.71564 331.40625 348.71564Q331.98438 348.71564 332.39062 348.41876Q332.8125 348.10626 333.04688 347.45ZM329.59375 345.7469L333.0625 345.7469Q333.0 344.95 332.67188 344.5594Q332.15625 343.95 331.35938 343.95Q330.625 343.95 330.125 344.4344Q329.64062 344.91876 329.59375 345.7469ZM335.79688 349.45L335.79688 343.23126L336.73438 343.23126L336.73438 344.10626Q337.42188 343.09064 338.71875 343.09064Q339.28125 343.09064 339.75 343.29376Q340.23438 343.4969 340.46875 343.825Q340.70312 344.15314 340.79688 344.59064Q340.84375 344.8875 340.84375 345.6219L340.84375 349.45L339.79688 349.45L339.79688 345.66876Q339.79688 345.0125 339.67188 344.7Q339.54688 344.3875 339.23438 344.2Q338.92188 343.9969 338.5 343.9969Q337.82812 343.9969 337.32812 344.4344Q336.84375 344.85626 336.84375 346.04376L336.84375 349.45L335.79688 349.45ZM346.82812 349.45L346.82812 348.66876Q346.23438 349.59064 345.09375 349.59064Q344.34375 349.59064 343.71875 349.1844Q343.09375 348.7625 342.75 348.02814Q342.40625 347.29376 342.40625 346.34064Q342.40625 345.41876 342.71875 344.65314Q343.03125 343.8875 343.65625 343.4969Q344.28125 343.09064 345.04688 343.09064Q345.60938 343.09064 346.04688 343.325Q346.48438 343.5594 346.76562 343.9344L346.76562 340.85626L347.8125 340.85626L347.8125 349.45L346.82812 349.45ZM343.5 346.34064Q343.5 347.54376 344.0 348.1375Q344.5 348.71564 345.1875 348.71564Q345.875 348.71564 346.35938 348.15314Q346.84375 347.59064 346.84375 346.4344Q346.84375 345.15314 346.34375 344.5594Q345.85938 343.96564 345.14062 343.96564Q344.4375 343.96564 343.96875 344.54376Q343.5 345.10626 343.5 346.34064Z" fill-rule="nonzero"/><path fill="#000000" d="M29.550013 202.57396L21.971888 202.57396L21.971888 205.40208L20.956263 205.40208L20.956263 198.58958L21.971888 198.58958L21.971888 201.43333L29.550013 201.43333L29.550013 202.57396ZM22.175013 197.88646L20.956263 197.88646L20.956263 196.82396L22.175013 196.82396L22.175013 197.88646ZM29.550013 197.88646L23.331263 197.88646L23.331263 196.82396L29.550013 196.82396L29.550013 197.88646ZM29.550013 194.88646L23.331263 194.88646L23.331263 193.94896L24.206263 193.94896Q23.737513 193.65208 23.471888 193.16771Q23.190638 192.68333 23.190638 192.05833Q23.190638 191.37083 23.471888 190.93333Q23.753138 190.48021 24.268763 190.30833Q23.190638 189.55833 23.190638 188.38646Q23.190638 187.44896 23.706263 186.96458Q24.206263 186.46458 25.284388 186.46458L29.550013 186.46458L29.550013 187.51146L25.628138 187.51146Q25.003138 187.51146 24.721888 187.62083Q24.440638 187.71458 24.268763 187.98021Q24.096888 188.24583 24.096888 188.62083Q24.096888 189.27708 24.534388 189.71458Q24.971888 190.13646 25.940638 190.13646L29.550013 190.13646L29.550013 191.19896L25.503138 191.19896Q24.800013 191.19896 24.456263 191.46458Q24.096888 191.71458 24.096888 192.29271Q24.096888 192.74583 24.331263 193.12083Q24.565638 193.49583 25.018763 193.66771Q25.471888 193.83958 26.315638 193.83958L29.550013 193.83958L29.550013 194.88646ZM27.550013 179.63646L27.675013 178.54271Q28.628138 178.79271 29.159388 179.49583Q29.690638 180.19896 29.690638 181.27708Q29.690638 182.63646 28.846888 183.44896Q28.003138 184.24583 26.487513 184.24583Q24.925013 184.24583 24.065638 183.43333Q23.190638 182.62083 23.190638 181.33958Q23.190638 180.08958 24.034388 179.30833Q24.878138 178.51146 26.425013 178.51146Q26.518763 178.51146 26.706263 178.51146L26.706263 183.15208Q27.737513 183.08958 28.284388 182.57396Q28.815638 182.05833 28.815638 181.27708Q28.815638 180.69896 28.518763 180.29271Q28.206263 179.87083 27.550013 179.63646ZM25.846888 183.08958L25.846888 179.62083Q25.050013 179.68333 24.659388 180.01146Q24.050013 180.52708 24.050013 181.32396Q24.050013 182.05833 24.534388 182.55833Q25.018763 183.04271 25.846888 183.08958ZM32.08126 171.87083Q30.971888 172.74583 29.503138 173.35521Q28.018763 173.94896 26.440638 173.94896Q25.050013 173.94896 23.768763 173.51146Q22.284388 172.98021 20.815638 171.87083L20.815638 171.12083Q22.034388 171.82396 22.550013 172.05833Q23.362513 172.41771 24.237513 172.62083Q25.331263 172.87083 26.440638 172.87083Q29.268763 172.87083 32.08126 171.12083L32.08126 171.87083ZM27.690638 170.30833L27.534388 169.27708Q28.159388 169.18333 28.487513 168.79271Q28.815638 168.38646 28.815638 167.65208Q28.815638 166.93333 28.534388 166.58958Q28.237513 166.23021 27.831263 166.23021Q27.471888 166.23021 27.268763 166.54271Q27.128138 166.76146 26.909388 167.62083Q26.612513 168.77708 26.409388 169.23021Q26.190638 169.66771 25.815638 169.90208Q25.440638 170.13646 24.971888 170.13646Q24.565638 170.13646 24.206263 169.94896Q23.846888 169.76146 23.612513 169.43333Q23.440638 169.18333 23.315638 168.76146Q23.190638 168.33958 23.190638 167.83958Q23.190638 167.12083 23.409388 166.57396Q23.612513 166.01146 23.971888 165.74583Q24.331263 165.48021 24.925013 165.38646L25.065638 166.41771Q24.596888 166.48021 24.331263 166.82396Q24.050013 167.15208 24.050013 167.77708Q24.050013 168.49583 24.300013 168.80833Q24.534388 169.12083 24.862513 169.12083Q25.065638 169.12083 25.221888 168.99583Q25.393763 168.85521 25.503138 168.58958Q25.565638 168.43333 25.768763 167.65208Q26.081263 166.52708 26.268763 166.08958Q26.456263 165.65208 26.815638 165.40208Q27.175013 165.15208 27.721888 165.15208Q28.253138 165.15208 28.721888 165.46458Q29.175013 165.76146 29.440638 166.33958Q29.690638 166.91771 29.690638 167.65208Q29.690638 168.87083 29.190638 169.51146Q28.675013 170.13646 27.690638 170.30833ZM32.08126 162.19896L32.08126 162.94896Q29.268763 161.19896 26.440638 161.19896Q25.346888 161.19896 24.253138 161.44896Q23.378138 161.65208 22.565638 162.01146Q22.050013 162.24583 20.815638 162.94896L20.815638 162.19896Q22.284388 161.10521 23.768763 160.57396Q25.050013 160.12083 26.440638 160.12083Q28.018763 160.12083 29.503138 160.73021Q30.971888 161.33958 32.08126 162.19896Z" fill-rule="nonzero"/><path fill="#000000" d="M578.45 202.57394L570.8719 202.57394L570.8719 205.40207L569.85626 205.40207L569.85626 198.58957L570.8719 198.58957L570.8719 201.43332L578.45 201.43332L578.45 202.57394ZM571.075 197.88644L569.85626 197.88644L569.85626 196.82394L571.075 196.82394L571.075 197.88644ZM578.45 197.88644L572.23126 197.88644L572.23126 196.82394L578.45 196.82394L578.45 197.88644ZM578.45 194.88644L572.23126 194.88644L572.23126 193.94894L573.10626 193.94894Q572.6375 193.65207 572.3719 193.1677Q572.09064 192.68332 572.09064 192.05832Q572.09064 191.37082 572.3719 190.93332Q572.65314 190.4802 573.16876 190.30832Q572.09064 189.55832 572.09064 188.38644Q572.09064 187.44894 572.60626 186.96457Q573.10626 186.46457 574.1844 186.46457L578.45 186.46457L578.45 187.51144L574.52814 187.51144Q573.90314 187.51144 573.6219 187.62082Q573.34064 187.71457 573.16876 187.9802Q572.9969 188.24582 572.9969 188.62082Q572.9969 189.27707 573.4344 189.71457Q573.8719 190.13644 574.84064 190.13644L578.45 190.13644L578.45 191.19894L574.40314 191.19894Q573.7 191.19894 573.35626 191.46457Q572.9969 191.71457 572.9969 192.2927Q572.9969 192.74582 573.23126 193.12082Q573.46564 193.49582 573.91876 193.6677Q574.3719 193.83957 575.21564 193.83957L578.45 193.83957L578.45 194.88644ZM576.45 179.63644L576.575 178.5427Q577.52814 178.7927 578.0594 179.49582Q578.59064 180.19894 578.59064 181.27707Q578.59064 182.63644 577.7469 183.44894Q576.90314 184.24582 575.3875 184.24582Q573.825 184.24582 572.96564 183.43332Q572.09064 182.62082 572.09064 181.33957Q572.09064 180.08957 572.9344 179.30832Q573.77814 178.51144 575.325 178.51144Q575.41876 178.51144 575.60626 178.51144L575.60626 183.15207Q576.6375 183.08957 577.1844 182.57394Q577.71564 182.05832 577.71564 181.27707Q577.71564 180.69894 577.41876 180.2927Q577.10626 179.87082 576.45 179.63644ZM574.7469 183.08957L574.7469 179.62082Q573.95 179.68332 573.5594 180.01144Q572.95 180.52707 572.95 181.32394Q572.95 182.05832 573.4344 182.55832Q573.91876 183.0427 574.7469 183.08957ZM580.98126 171.87082Q579.8719 172.74582 578.40314 173.3552Q576.91876 173.94894 575.34064 173.94894Q573.95 173.94894 572.66876 173.51144Q571.1844 172.9802 569.71564 171.87082L569.71564 171.12082Q570.9344 171.82394 571.45 172.05832Q572.2625 172.4177 573.1375 172.62082Q574.23126 172.87082 575.34064 172.87082Q578.16876 172.87082 580.98126 171.12082L580.98126 171.87082ZM576.59064 170.30832L576.4344 169.27707Q577.0594 169.18332 577.3875 168.7927Q577.71564 168.38644 577.71564 167.65207Q577.71564 166.93332 577.4344 166.58957Q577.1375 166.2302 576.73126 166.2302Q576.3719 166.2302 576.16876 166.5427Q576.02814 166.76144 575.8094 167.62082Q575.5125 168.77707 575.3094 169.2302Q575.09064 169.6677 574.71564 169.90207Q574.34064 170.13644 573.8719 170.13644Q573.46564 170.13644 573.10626 169.94894Q572.7469 169.76144 572.5125 169.43332Q572.34064 169.18332 572.21564 168.76144Q572.09064 168.33957 572.09064 167.83957Q572.09064 167.12082 572.3094 166.57394Q572.5125 166.01144 572.8719 165.74582Q573.23126 165.4802 573.825 165.38644L573.96564 166.4177Q573.4969 166.4802 573.23126 166.82394Q572.95 167.15207 572.95 167.77707Q572.95 168.49582 573.2 168.80832Q573.4344 169.12082 573.7625 169.12082Q573.96564 169.12082 574.1219 168.99582Q574.29376 168.8552 574.40314 168.58957Q574.46564 168.43332 574.66876 167.65207Q574.98126 166.52707 575.16876 166.08957Q575.35626 165.65207 575.71564 165.40207Q576.075 165.15207 576.6219 165.15207Q577.15314 165.15207 577.6219 165.46457Q578.075 165.76144 578.34064 166.33957Q578.59064 166.9177 578.59064 167.65207Q578.59064 168.87082 578.09064 169.51144Q577.575 170.13644 576.59064 170.30832ZM580.98126 162.19894L580.98126 162.94894Q578.16876 161.19894 575.34064 161.19894Q574.2469 161.19894 573.15314 161.44894Q572.27814 161.65207 571.46564 162.01144Q570.95 162.24582 569.71564 162.94894L569.71564 162.19894Q571.1844 161.1052 572.66876 160.57394Q573.95 160.12082 575.34064 160.12082Q576.91876 160.12082 578.40314 160.7302Q579.8719 161.33957 580.98126 162.19894Z" fill-rule="nonzero"/><path fill="#000000" d="M55.05 261.18262Q55.05 259.65137 55.3625 258.7295Q55.675 257.792 56.284374 257.292Q56.909374 256.792 57.846874 256.792Q58.534374 256.792 59.05 257.07324Q59.58125 257.3545 59.925 257.88574Q60.26875 258.40137 60.45625 259.15137Q60.64375 259.90137 60.64375 261.18262Q60.64375 262.69824 60.33125 263.62012Q60.034374 264.542 59.409374 265.05762Q58.8 265.55762 57.846874 265.55762Q56.6125 265.55762 55.89375 264.667Q55.05 263.6045 55.05 261.18262ZM56.128124 261.18262Q56.128124 263.292 56.628124 263.99512Q57.128124 264.69824 57.846874 264.69824Q58.58125 264.69824 59.065624 263.99512Q59.565624 263.292 59.565624 261.18262Q59.565624 259.05762 59.065624 258.37012Q58.58125 257.667 57.83125 257.667Q57.1125 257.667 56.675 258.27637Q56.128124 259.05762 56.128124 261.18262ZM62.64375 265.417L62.64375 264.21387L63.846874 264.21387L63.846874 265.417L62.64375 265.417ZM65.05 261.18262Q65.05 259.65137 65.3625 258.7295Q65.675 257.792 66.28438 257.292Q66.90938 256.792 67.84688 256.792Q68.53438 256.792 69.05 257.07324Q69.58125 257.3545 69.925 257.88574Q70.26875 258.40137 70.45625 259.15137Q70.64375 259.90137 70.64375 261.18262Q70.64375 262.69824 70.33125 263.62012Q70.03438 264.542 69.40938 265.05762Q68.8 265.55762 67.84688 265.55762Q66.6125 265.55762 65.89375 264.667Q65.05 263.6045 65.05 261.18262ZM66.12813 261.18262Q66.12813 263.292 66.62813 263.99512Q67.12813 264.69824 67.84688 264.69824Q68.58125 264.69824 69.06563 263.99512Q69.56563 263.292 69.56563 261.18262Q69.56563 259.05762 69.06563 258.37012Q68.58125 257.667 67.83125 257.667Q67.1125 257.667 66.675 258.27637Q66.12813 259.05762 66.12813 261.18262Z" fill-rule="nonzero"/><path fill="#000000" d="M55.05 219.28255Q55.05 217.7513 55.3625 216.82942Q55.675 215.89192 56.284374 215.39192Q56.909374 214.89192 57.846874 214.89192Q58.534374 214.89192 59.05 215.17317Q59.58125 215.45442 59.925 215.98567Q60.26875 216.5013 60.45625 217.2513Q60.64375 218.0013 60.64375 219.28255Q60.64375 220.79817 60.33125 221.72005Q60.034374 222.64192 59.409374 223.15755Q58.8 223.65755 57.846874 223.65755Q56.6125 223.65755 55.89375 222.76692Q55.05 221.70442 55.05 219.28255ZM56.128124 219.28255Q56.128124 221.39192 56.628124 222.09505Q57.128124 222.79817 57.846874 222.79817Q58.58125 222.79817 59.065624 222.09505Q59.565624 221.39192 59.565624 219.28255Q59.565624 217.15755 59.065624 216.47005Q58.58125 215.76692 57.83125 215.76692Q57.1125 215.76692 56.675 216.3763Q56.128124 217.15755 56.128124 219.28255ZM62.64375 223.51692L62.64375 222.3138L63.846874 222.3138L63.846874 223.51692L62.64375 223.51692ZM65.05 221.26692L66.15938 221.17317Q66.28438 221.98567 66.72188 222.39192Q67.175 222.79817 67.81563 222.79817Q68.56563 222.79817 69.09688 222.22005Q69.62813 221.64192 69.62813 220.70442Q69.62813 219.79817 69.1125 219.28255Q68.6125 218.7513 67.78438 218.7513Q67.28438 218.7513 66.8625 218.98567Q66.45625 219.22005 66.22188 219.57942L65.2375 219.45442L66.06563 215.04817L70.34688 215.04817L70.34688 216.04817L66.90938 216.04817L66.45625 218.36067Q67.22188 217.8138 68.06563 217.8138Q69.19063 217.8138 69.95625 218.59505Q70.7375 219.3763 70.7375 220.61067Q70.7375 221.76692 70.06563 222.6263Q69.2375 223.65755 67.81563 223.65755Q66.64375 223.65755 65.89375 223.0013Q65.15938 222.34505 65.05 221.26692Z" fill-rule="nonzero"/><path fill="#000000" d="M59.01875 181.61687L57.971874 181.61687L57.971874 174.89812Q57.58125 175.25749 56.95625 175.63249Q56.346874 175.99187 55.8625 176.16374L55.8625 175.14812Q56.7375 174.72624 57.39375 174.14812Q58.065624 173.55437 58.346874 172.99187L59.01875 172.99187L59.01875 181.61687ZM62.64375 181.61687L62.64375 180.41374L63.846874 180.41374L63.846874 181.61687L62.64375 181.61687ZM65.05 177.38249Q65.05 175.85124 65.3625 174.92937Q65.675 173.99187 66.28438 173.49187Q66.90938 172.99187 67.84688 172.99187Q68.53438 172.99187 69.05 173.27312Q69.58125 173.55437 69.925 174.08562Q70.26875 174.60124 70.45625 175.35124Q70.64375 176.10124 70.64375 177.38249Q70.64375 178.89812 70.33125 179.81999Q70.03438 180.74187 69.40938 181.25749Q68.8 181.75749 67.84688 181.75749Q66.6125 181.75749 65.89375 180.86687Q65.05 179.80437 65.05 177.38249ZM66.12813 177.38249Q66.12813 179.49187 66.62813 180.19499Q67.12813 180.89812 67.84688 180.89812Q68.58125 180.89812 69.06563 180.19499Q69.56563 179.49187 69.56563 177.38249Q69.56563 175.25749 69.06563 174.56999Q68.58125 173.86687 67.83125 173.86687Q67.1125 173.86687 66.675 174.47624Q66.12813 175.25749 66.12813 177.38249Z" fill-rule="nonzero"/><path fill="#000000" d="M59.01875 139.7168L57.971874 139.7168L57.971874 132.99805Q57.58125 133.35742 56.95625 133.73242Q56.346874 134.0918 55.8625 134.26367L55.8625 133.24805Q56.7375 132.82617 57.39375 132.24805Q58.065624 131.6543 58.346874 131.0918L59.01875 131.0918L59.01875 139.7168ZM62.64375 139.7168L62.64375 138.51367L63.846874 138.51367L63.846874 139.7168L62.64375 139.7168ZM65.05 137.4668L66.15938 137.37305Q66.28438 138.18555 66.72188 138.5918Q67.175 138.99805 67.81563 138.99805Q68.56563 138.99805 69.09688 138.41992Q69.62813 137.8418 69.62813 136.9043Q69.62813 135.99805 69.1125 135.48242Q68.6125 134.95117 67.78438 134.95117Q67.28438 134.95117 66.8625 135.18555Q66.45625 135.41992 66.22188 135.7793L65.2375 135.6543L66.06563 131.24805L70.34688 131.24805L70.34688 132.24805L66.90938 132.24805L66.45625 134.56055Q67.22188 134.01367 68.06563 134.01367Q69.19063 134.01367 69.95625 134.79492Q70.7375 135.57617 70.7375 136.81055Q70.7375 137.9668 70.06563 138.82617Q69.2375 139.85742 67.81563 139.85742Q66.64375 139.85742 65.89375 139.20117Q65.15938 138.54492 65.05 137.4668Z" fill-rule="nonzero"/><path fill="#000000" d="M60.596874 96.80111L60.596874 97.816734L54.909374 97.816734Q54.909374 97.441734 55.034374 97.08236Q55.253124 96.504234 55.721874 95.941734Q56.20625 95.379234 57.1125 94.64486Q58.51875 93.48861 59.003124 92.816734Q59.503124 92.14486 59.503124 91.55111Q59.503124 90.92611 59.05 90.504234Q58.596874 90.066734 57.878124 90.066734Q57.1125 90.066734 56.659374 90.51986Q56.20625 90.972984 56.190624 91.785484L55.1125 91.67611Q55.221874 90.45736 55.940624 89.83236Q56.675 89.191734 57.909374 89.191734Q59.14375 89.191734 59.8625 89.879234Q60.58125 90.566734 60.58125 91.58236Q60.58125 92.097984 60.3625 92.597984Q60.159374 93.08236 59.659374 93.64486Q59.175 94.191734 58.05 95.14486Q57.096874 95.941734 56.815624 96.23861Q56.55 96.51986 56.378124 96.80111L60.596874 96.80111ZM62.64375 97.816734L62.64375 96.61361L63.846874 96.61361L63.846874 97.816734L62.64375 97.816734ZM65.05 93.58236Q65.05 92.05111 65.3625 91.129234Q65.675 90.191734 66.28438 89.691734Q66.90938 89.191734 67.84688 89.191734Q68.53438 89.191734 69.05 89.472984Q69.58125 89.754234 69.925 90.285484Q70.26875 90.80111 70.45625 91.55111Q70.64375 92.30111 70.64375 93.58236Q70.64375 95.097984 70.33125 96.01986Q70.03438 96.941734 69.40938 97.45736Q68.8 97.95736 67.84688 97.95736Q66.6125 97.95736 65.89375 97.066734Q65.05 96.004234 65.05 93.58236ZM66.12813 93.58236Q66.12813 95.691734 66.62813 96.39486Q67.12813 97.097984 67.84688 97.097984Q68.58125 97.097984 69.06563 96.39486Q69.56563 95.691734 69.56563 93.58236Q69.56563 91.45736 69.06563 90.76986Q68.58125 90.066734 67.83125 90.066734Q67.1125 90.066734 66.675 90.67611Q66.12813 91.45736 66.12813 93.58236Z" fill-rule="nonzero"/><path fill="#000000" d="M60.596874 54.901043L60.596874 55.916668L54.909374 55.916668Q54.909374 55.541668 55.034374 55.182293Q55.253124 54.604168 55.721874 54.041668Q56.20625 53.479168 57.1125 52.744793Q58.51875 51.588543 59.003124 50.916668Q59.503124 50.244793 59.503124 49.651043Q59.503124 49.026043 59.05 48.604168Q58.596874 48.166668 57.878124 48.166668Q57.1125 48.166668 56.659374 48.619793Q56.20625 49.072918 56.190624 49.885418L55.1125 49.776043Q55.221874 48.557293 55.940624 47.932293Q56.675 47.291668 57.909374 47.291668Q59.14375 47.291668 59.8625 47.979168Q60.58125 48.666668 60.58125 49.682293Q60.58125 50.197918 60.3625 50.697918Q60.159374 51.182293 59.659374 51.744793Q59.175 52.291668 58.05 53.244793Q57.096874 54.041668 56.815624 54.338543Q56.55 54.619793 56.378124 54.901043L60.596874 54.901043ZM62.64375 55.916668L62.64375 54.713543L63.846874 54.713543L63.846874 55.916668L62.64375 55.916668ZM65.05 53.666668L66.15938 53.572918Q66.28438 54.385418 66.72188 54.791668Q67.175 55.197918 67.81563 55.197918Q68.56563 55.197918 69.09688 54.619793Q69.62813 54.041668 69.62813 53.104168Q69.62813 52.197918 69.1125 51.682293Q68.6125 51.151043 67.78438 51.151043Q67.28438 51.151043 66.8625 51.385418Q66.45625 51.619793 66.22188 51.979168L65.2375 51.854168L66.06563 47.447918L70.34688 47.447918L70.34688 48.447918L66.90938 48.447918L66.45625 50.760418Q67.22188 50.213543 68.06563 50.213543Q69.19063 50.213543 69.95625 50.994793Q70.7375 51.776043 70.7375 53.010418Q70.7375 54.166668 70.06563 55.026043Q69.2375 56.057293 67.81563 56.057293Q66.64375 56.057293 65.89375 55.401043Q65.15938 54.744793 65.05 53.666668Z" fill-rule="nonzero"/><path fill="#000000" d="M525.95 261.18262Q525.95 259.65137 526.2625 258.7295Q526.575 257.792 527.1844 257.292Q527.8094 256.792 528.7469 256.792Q529.4344 256.792 529.95 257.07324Q530.48126 257.3545 530.825 257.88574Q531.16876 258.40137 531.35626 259.15137Q531.54376 259.90137 531.54376 261.18262Q531.54376 262.69824 531.23126 263.62012Q530.9344 264.542 530.3094 265.05762Q529.7 265.55762 528.7469 265.55762Q527.5125 265.55762 526.79376 264.667Q525.95 263.6045 525.95 261.18262ZM527.02814 261.18262Q527.02814 263.292 527.52814 263.99512Q528.02814 264.69824 528.7469 264.69824Q529.48126 264.69824 529.96564 263.99512Q530.46564 263.292 530.46564 261.18262Q530.46564 259.05762 529.96564 258.37012Q529.48126 257.667 528.73126 257.667Q528.0125 257.667 527.575 258.27637Q527.02814 259.05762 527.02814 261.18262ZM533.54376 265.417L533.54376 264.21387L534.7469 264.21387L534.7469 265.417L533.54376 265.417ZM535.95 261.18262Q535.95 259.65137 536.2625 258.7295Q536.575 257.792 537.1844 257.292Q537.8094 256.792 538.7469 256.792Q539.4344 256.792 539.95 257.07324Q540.48126 257.3545 540.825 257.88574Q541.16876 258.40137 541.35626 259.15137Q541.54376 259.90137 541.54376 261.18262Q541.54376 262.69824 541.23126 263.62012Q540.9344 264.542 540.3094 265.05762Q539.7 265.55762 538.7469 265.55762Q537.5125 265.55762 536.79376 264.667Q535.95 263.6045 535.95 261.18262ZM537.02814 261.18262Q537.02814 263.292 537.52814 263.99512Q538.02814 264.69824 538.7469 264.69824Q539.48126 264.69824 539.96564 263.99512Q540.46564 263.292 540.46564 261.18262Q540.46564 259.05762 539.96564 258.37012Q539.48126 257.667 538.73126 257.667Q538.0125 257.667 537.575 258.27637Q537.02814 259.05762 537.02814 261.18262ZM542.95 261.18262Q542.95 259.65137 543.2625 258.7295Q543.575 257.792 544.1844 257.292Q544.8094 256.792 545.7469 256.792Q546.4344 256.792 546.95 257.07324Q547.48126 257.3545 547.825 257.88574Q548.16876 258.40137 548.35626 259.15137Q548.54376 259.90137 548.54376 261.18262Q548.54376 262.69824 548.23126 263.62012Q547.9344 264.542 547.3094 265.05762Q546.7 265.55762 545.7469 265.55762Q544.5125 265.55762 543.79376 264.667Q542.95 263.6045 542.95 261.18262ZM544.02814 261.18262Q544.02814 263.292 544.52814 263.99512Q545.02814 264.69824 545.7469 264.69824Q546.48126 264.69824 546.96564 263.99512Q547.46564 263.292 547.46564 261.18262Q547.46564 259.05762 546.96564 258.37012Q546.48126 257.667 545.73126 257.667Q545.0125 257.667 544.575 258.27637Q544.02814 259.05762 544.02814 261.18262Z" fill-rule="nonzero"/><path fill="#000000" d="M525.95 208.80754Q525.95 207.27629 526.2625 206.35442Q526.575 205.41692 527.1844 204.91692Q527.8094 204.41692 528.7469 204.41692Q529.4344 204.41692 529.95 204.69817Q530.48126 204.97942 530.825 205.51067Q531.16876 206.02629 531.35626 206.77629Q531.54376 207.52629 531.54376 208.80754Q531.54376 210.32317 531.23126 211.24504Q530.9344 212.16692 530.3094 212.68254Q529.7 213.18254 528.7469 213.18254Q527.5125 213.18254 526.79376 212.29192Q525.95 211.22942 525.95 208.80754ZM527.02814 208.80754Q527.02814 210.91692 527.52814 211.62004Q528.02814 212.32317 528.7469 212.32317Q529.48126 212.32317 529.96564 211.62004Q530.46564 210.91692 530.46564 208.80754Q530.46564 206.68254 529.96564 205.99504Q529.48126 205.29192 528.73126 205.29192Q528.0125 205.29192 527.575 205.90129Q527.02814 206.68254 527.02814 208.80754ZM533.54376 213.04192L533.54376 211.83879L534.7469 211.83879L534.7469 213.04192L533.54376 213.04192ZM535.95 208.80754Q535.95 207.27629 536.2625 206.35442Q536.575 205.41692 537.1844 204.91692Q537.8094 204.41692 538.7469 204.41692Q539.4344 204.41692 539.95 204.69817Q540.48126 204.97942 540.825 205.51067Q541.16876 206.02629 541.35626 206.77629Q541.54376 207.52629 541.54376 208.80754Q541.54376 210.32317 541.23126 211.24504Q540.9344 212.16692 540.3094 212.68254Q539.7 213.18254 538.7469 213.18254Q537.5125 213.18254 536.79376 212.29192Q535.95 211.22942 535.95 208.80754ZM537.02814 208.80754Q537.02814 210.91692 537.52814 211.62004Q538.02814 212.32317 538.7469 212.32317Q539.48126 212.32317 539.96564 211.62004Q540.46564 210.91692 540.46564 208.80754Q540.46564 206.68254 539.96564 205.99504Q539.48126 205.29192 538.73126 205.29192Q538.0125 205.29192 537.575 205.90129Q537.02814 206.68254 537.02814 208.80754ZM546.91876 213.04192L545.8719 213.04192L545.8719 206.32317Q545.48126 206.68254 544.85626 207.05754Q544.2469 207.41692 543.7625 207.58879L543.7625 206.57317Q544.6375 206.15129 545.29376 205.57317Q545.96564 204.97942 546.2469 204.41692L546.91876 204.41692L546.91876 213.04192Z" fill-rule="nonzero"/><path fill="#000000" d="M525.95 156.43245Q525.95 154.9012 526.2625 153.97932Q526.575 153.04182 527.1844 152.54182Q527.8094 152.04182 528.7469 152.04182Q529.4344 152.04182 529.95 152.32307Q530.48126 152.60432 530.825 153.13557Q531.16876 153.6512 531.35626 154.4012Q531.54376 155.1512 531.54376 156.43245Q531.54376 157.94807 531.23126 158.86995Q530.9344 159.79182 530.3094 160.30745Q529.7 160.80745 528.7469 160.80745Q527.5125 160.80745 526.79376 159.91682Q525.95 158.85432 525.95 156.43245ZM527.02814 156.43245Q527.02814 158.54182 527.52814 159.24495Q528.02814 159.94807 528.7469 159.94807Q529.48126 159.94807 529.96564 159.24495Q530.46564 158.54182 530.46564 156.43245Q530.46564 154.30745 529.96564 153.61995Q529.48126 152.91682 528.73126 152.91682Q528.0125 152.91682 527.575 153.5262Q527.02814 154.30745 527.02814 156.43245ZM533.54376 160.66682L533.54376 159.4637L534.7469 159.4637L534.7469 160.66682L533.54376 160.66682ZM535.95 156.43245Q535.95 154.9012 536.2625 153.97932Q536.575 153.04182 537.1844 152.54182Q537.8094 152.04182 538.7469 152.04182Q539.4344 152.04182 539.95 152.32307Q540.48126 152.60432 540.825 153.13557Q541.16876 153.6512 541.35626 154.4012Q541.54376 155.1512 541.54376 156.43245Q541.54376 157.94807 541.23126 158.86995Q540.9344 159.79182 540.3094 160.30745Q539.7 160.80745 538.7469 160.80745Q537.5125 160.80745 536.79376 159.91682Q535.95 158.85432 535.95 156.43245ZM537.02814 156.43245Q537.02814 158.54182 537.52814 159.24495Q538.02814 159.94807 538.7469 159.94807Q539.48126 159.94807 539.96564 159.24495Q540.46564 158.54182 540.46564 156.43245Q540.46564 154.30745 539.96564 153.61995Q539.48126 152.91682 538.73126 152.91682Q538.0125 152.91682 537.575 153.5262Q537.02814 154.30745 537.02814 156.43245ZM548.4969 159.6512L548.4969 160.66682L542.8094 160.66682Q542.8094 160.29182 542.9344 159.93245Q543.15314 159.35432 543.6219 158.79182Q544.10626 158.22932 545.0125 157.49495Q546.41876 156.3387 546.90314 155.66682Q547.40314 154.99495 547.40314 154.4012Q547.40314 153.7762 546.95 153.35432Q546.4969 152.91682 545.77814 152.91682Q545.0125 152.91682 544.5594 153.36995Q544.10626 153.82307 544.09064 154.63557L543.0125 154.5262Q543.1219 153.30745 543.84064 152.68245Q544.575 152.04182 545.8094 152.04182Q547.04376 152.04182 547.7625 152.72932Q548.48126 153.41682 548.48126 154.43245Q548.48126 154.94807 548.2625 155.44807Q548.0594 155.93245 547.5594 156.49495Q547.075 157.04182 545.95 157.99495Q544.9969 158.79182 544.71564 159.0887Q544.45 159.36995 544.27814 159.6512L548.4969 159.6512Z" fill-rule="nonzero"/><path fill="#000000" d="M525.95 104.05737Q525.95 102.52612 526.2625 101.60425Q526.575 100.66675 527.1844 100.16675Q527.8094 99.66675 528.7469 99.66675Q529.4344 99.66675 529.95 99.948Q530.48126 100.22925 530.825 100.7605Q531.16876 101.27612 531.35626 102.02612Q531.54376 102.77612 531.54376 104.05737Q531.54376 105.573 531.23126 106.49487Q530.9344 107.41675 530.3094 107.93237Q529.7 108.43237 528.7469 108.43237Q527.5125 108.43237 526.79376 107.54175Q525.95 106.47925 525.95 104.05737ZM527.02814 104.05737Q527.02814 106.16675 527.52814 106.86987Q528.02814 107.573 528.7469 107.573Q529.48126 107.573 529.96564 106.86987Q530.46564 106.16675 530.46564 104.05737Q530.46564 101.93237 529.96564 101.24487Q529.48126 100.54175 528.73126 100.54175Q528.0125 100.54175 527.575 101.15112Q527.02814 101.93237 527.02814 104.05737ZM533.54376 108.29175L533.54376 107.08862L534.7469 107.08862L534.7469 108.29175L533.54376 108.29175ZM535.95 104.05737Q535.95 102.52612 536.2625 101.60425Q536.575 100.66675 537.1844 100.16675Q537.8094 99.66675 538.7469 99.66675Q539.4344 99.66675 539.95 99.948Q540.48126 100.22925 540.825 100.7605Q541.16876 101.27612 541.35626 102.02612Q541.54376 102.77612 541.54376 104.05737Q541.54376 105.573 541.23126 106.49487Q540.9344 107.41675 540.3094 107.93237Q539.7 108.43237 538.7469 108.43237Q537.5125 108.43237 536.79376 107.54175Q535.95 106.47925 535.95 104.05737ZM537.02814 104.05737Q537.02814 106.16675 537.52814 106.86987Q538.02814 107.573 538.7469 107.573Q539.48126 107.573 539.96564 106.86987Q540.46564 106.16675 540.46564 104.05737Q540.46564 101.93237 539.96564 101.24487Q539.48126 100.54175 538.73126 100.54175Q538.0125 100.54175 537.575 101.15112Q537.02814 101.93237 537.02814 104.05737ZM542.95 106.02612L544.0125 105.8855Q544.1844 106.77612 544.6219 107.18237Q545.0594 107.573 545.6844 107.573Q546.4344 107.573 546.95 107.05737Q547.46564 106.54175 547.46564 105.77612Q547.46564 105.05737 546.98126 104.58862Q546.5125 104.10425 545.77814 104.10425Q545.48126 104.10425 545.02814 104.22925L545.15314 103.29175Q545.2625 103.30737 545.325 103.30737Q545.9969 103.30737 546.52814 102.96362Q547.075 102.60425 547.075 101.86987Q547.075 101.29175 546.6844 100.91675Q546.29376 100.52612 545.66876 100.52612Q545.0594 100.52612 544.6375 100.91675Q544.23126 101.30737 544.1219 102.073L543.0594 101.8855Q543.2469 100.83862 543.9344 100.2605Q544.6219 99.66675 545.6375 99.66675Q546.34064 99.66675 546.9344 99.97925Q547.52814 100.27612 547.84064 100.79175Q548.15314 101.30737 548.15314 101.90112Q548.15314 102.448 547.85626 102.91675Q547.5594 103.36987 546.98126 103.6355Q547.73126 103.80737 548.15314 104.36987Q548.575 104.91675 548.575 105.7605Q548.575 106.8855 547.7469 107.66675Q546.9344 108.448 545.6844 108.448Q544.5594 108.448 543.8094 107.77612Q543.0594 107.08862 542.95 106.02612Z" fill-rule="nonzero"/><path fill="#000000" d="M525.95 51.682293Q525.95 50.151043 526.2625 49.229168Q526.575 48.291668 527.1844 47.791668Q527.8094 47.291668 528.7469 47.291668Q529.4344 47.291668 529.95 47.572918Q530.48126 47.854168 530.825 48.385418Q531.16876 48.901043 531.35626 49.651043Q531.54376 50.401043 531.54376 51.682293Q531.54376 53.197918 531.23126 54.119793Q530.9344 55.041668 530.3094 55.557293Q529.7 56.057293 528.7469 56.057293Q527.5125 56.057293 526.79376 55.166668Q525.95 54.104168 525.95 51.682293ZM527.02814 51.682293Q527.02814 53.791668 527.52814 54.494793Q528.02814 55.197918 528.7469 55.197918Q529.48126 55.197918 529.96564 54.494793Q530.46564 53.791668 530.46564 51.682293Q530.46564 49.557293 529.96564 48.869793Q529.48126 48.166668 528.73126 48.166668Q528.0125 48.166668 527.575 48.776043Q527.02814 49.557293 527.02814 51.682293ZM533.54376 55.916668L533.54376 54.713543L534.7469 54.713543L534.7469 55.916668L533.54376 55.916668ZM535.95 51.682293Q535.95 50.151043 536.2625 49.229168Q536.575 48.291668 537.1844 47.791668Q537.8094 47.291668 538.7469 47.291668Q539.4344 47.291668 539.95 47.572918Q540.48126 47.854168 540.825 48.385418Q541.16876 48.901043 541.35626 49.651043Q541.54376 50.401043 541.54376 51.682293Q541.54376 53.197918 541.23126 54.119793Q540.9344 55.041668 540.3094 55.557293Q539.7 56.057293 538.7469 56.057293Q537.5125 56.057293 536.79376 55.166668Q535.95 54.104168 535.95 51.682293ZM537.02814 51.682293Q537.02814 53.791668 537.52814 54.494793Q538.02814 55.197918 538.7469 55.197918Q539.48126 55.197918 539.96564 54.494793Q540.46564 53.791668 540.46564 51.682293Q540.46564 49.557293 539.96564 48.869793Q539.48126 48.166668 538.73126 48.166668Q538.0125 48.166668 537.575 48.776043Q537.02814 49.557293 537.02814 51.682293ZM546.325 55.916668L546.325 53.854168L542.60626 53.854168L542.60626 52.885418L546.52814 47.322918L547.3875 47.322918L547.3875 52.885418L548.54376 52.885418L548.54376 53.854168L547.3875 53.854168L547.3875 55.916668L546.325 55.916668ZM546.325 52.885418L546.325 49.026043L543.6375 52.885418L546.325 52.885418Z" fill-rule="nonzero"/><path fill="#000000" d="M108.400055 288.57495L109.239746 287.95624Q109.615395 288.2435 109.979996 288.18826Q110.46613 288.12198 110.94122 287.64688Q111.4605 287.1276 111.526794 286.64145Q111.60413 286.1443 111.33897 285.68024Q111.17324 285.38193 110.43298 284.66376Q110.52138 285.72443 109.792175 286.45364Q108.88619 287.35962 107.737144 287.20493Q106.57705 287.0392 105.67107 286.13324Q105.0413 285.50345 104.73194 284.75217Q104.42258 283.97876 104.56621 283.26062Q104.70984 282.54245 105.29542 281.95688Q106.079865 281.17242 107.21786 281.29398L106.68753 280.76364L107.37254 280.0786L111.17324 283.87933Q112.20075 284.90683 112.42172 285.54767Q112.64269 286.18848 112.43277 286.88452Q112.2339 287.59164 111.570984 288.25455Q110.78654 289.039 109.94685 289.17157Q109.10716 289.30417 108.400055 288.57495ZM106.378174 285.31564Q107.23996 286.17743 107.98021 286.23267Q108.72047 286.2879 109.239746 285.76862Q109.759026 285.24936 109.70378 284.5091Q109.65959 283.75778 108.8199 282.9181Q108.01336 282.11157 107.23996 282.06735Q106.47761 282.01212 105.969376 282.52036Q105.47219 283.01755 105.527435 283.77988Q105.58268 284.52014 106.378174 285.31564ZM114.38836 278.6313L115.217 278.0015Q115.84677 278.87433 115.78048 279.80243Q115.71419 280.7305 114.99603 281.44864Q114.09005 282.35464 112.95205 282.32147Q111.81405 282.26624 110.7092 281.16138Q110.00209 280.45428 109.70378 279.69193Q109.405464 278.9075 109.61539 278.16724Q109.83636 277.41592 110.41088 276.8414Q111.11799 276.1343 111.935585 276.04593Q112.753174 275.93542 113.55972 276.4768L112.941 277.3165Q112.39962 276.974 111.91349 277.0182Q111.416306 277.05133 111.04065 277.42697Q110.47717 277.99045 110.53242 278.7528Q110.576614 279.50412 111.44945 280.37695Q112.34438 281.27188 113.08463 281.32712Q113.82488 281.38235 114.366264 280.84097Q114.808205 280.39905 114.8303 279.84662Q114.86345 279.28314 114.38836 278.6313ZM118.631004 274.38864L119.45964 273.75885Q120.08941 274.6317 120.02312 275.55978Q119.956825 276.48785 119.23867 277.20602Q118.33269 278.112 117.19469 278.07886Q116.056694 278.0236 114.951836 276.91876Q114.24473 276.21164 113.94642 275.44928Q113.64811 274.66486 113.85803 273.9246Q114.079 273.17328 114.65353 272.59875Q115.360634 271.89166 116.17822 271.80328Q116.99582 271.69278 117.80236 272.23416L117.18364 273.07385Q116.642265 272.73135 116.15613 272.77554Q115.65894 272.8087 115.283295 273.18433Q114.71982 273.7478 114.77506 274.51016Q114.81925 275.26147 115.692085 276.1343Q116.58702 277.02924 117.32727 277.08447Q118.06753 277.1397 118.6089 276.59833Q119.05084 276.1564 119.072945 275.60397Q119.10609 275.0405 118.631004 274.38864Z" fill-rule="nonzero"/><path fill="#000000" d="M154.5826 291.3592L155.41124 290.72943Q156.04102 291.60226 155.97472 292.53033Q155.90843 293.4584 155.19028 294.17657Q154.28429 295.08255 153.14629 295.0494Q152.00829 294.99417 150.90344 293.8893Q150.19633 293.1822 149.89803 292.41986Q149.5997 291.6354 149.80963 290.89514Q150.0306 290.14386 150.60512 289.56934Q151.31223 288.8622 152.12982 288.77383Q152.94742 288.66333 153.75397 289.2047L153.13524 290.0444Q152.59386 289.7019 152.10773 289.7461Q151.61055 289.77924 151.2349 290.1549Q150.67142 290.71838 150.72665 291.4807Q150.77086 292.23203 151.64369 293.10486Q152.53862 293.9998 153.27887 294.05502Q154.01912 294.1103 154.5605 293.5689Q155.00244 293.12695 155.02454 292.57452Q155.0577 292.01105 154.5826 291.3592ZM157.54361 291.62436L151.4669 285.54767L152.21822 284.79636L158.2949 290.87305L157.54361 291.62436ZM162.01826 286.06693Q161.95198 286.84033 161.70891 287.37067Q161.4769 287.88995 161.03494 288.33188Q160.30574 289.0611 159.56549 289.09424Q158.82524 289.12738 158.27281 288.57495Q157.95241 288.25455 157.83087 287.84576Q157.69829 287.4259 157.78668 287.02817Q157.86401 286.61935 158.08499 286.2437Q158.22862 285.9675 158.62637 285.45926Q159.42186 284.4649 159.69807 283.87933Q159.5434 283.72464 159.51025 283.6915Q159.04622 283.22745 158.64847 283.24957Q158.11813 283.29376 157.55466 283.85724Q157.03537 284.3765 156.96909 284.81845Q156.89174 285.24936 157.23425 285.83493L156.40561 286.4647Q156.04102 285.9012 155.98576 285.38193Q155.93053 284.86264 156.20674 284.27707Q156.48296 283.6915 157.04643 283.12802Q157.6099 282.56454 158.09604 282.34357Q158.58217 282.12262 158.94678 282.15576Q159.31137 282.1889 159.68703 282.43198Q159.908 282.58664 160.40518 283.08383L161.39955 284.0782Q162.43811 285.11676 162.75853 285.3488Q163.08998 285.56976 163.48773 285.68024L162.70328 286.4647Q162.36078 286.34314 162.01826 286.06693ZM160.28365 284.4649Q160.04059 285.03943 159.35558 285.9675Q158.95782 286.49783 158.85838 286.77405Q158.7479 287.0392 158.7921 287.30438Q158.84734 287.5585 159.04622 287.75735Q159.34453 288.05566 159.76437 288.03357Q160.19527 288.00043 160.62616 287.56955Q161.05705 287.13864 161.20068 286.61935Q161.35536 286.08902 161.17857 285.6029Q161.046 285.22723 160.55986 284.74112L160.28365 284.4649ZM164.63678 284.5312L160.23946 280.13388L160.90237 279.47095L161.52109 280.08966Q161.28906 278.88538 162.2061 277.96835Q162.60384 277.57062 163.07893 277.38278Q163.56506 277.1839 163.96281 277.2502Q164.36057 277.3165 164.7362 277.55957Q164.97928 277.73633 165.49857 278.2556L168.20546 280.9625L167.4652 281.70276L164.79146 279.02902Q164.32742 278.56497 164.01805 278.4324Q163.7087 278.2998 163.35515 278.38818Q162.99054 278.46555 162.69223 278.76385Q162.21715 279.23892 162.17294 279.90186Q162.12875 280.54266 162.96844 281.38235L165.37703 283.79092L164.63678 284.5312ZM169.8075 280.08966L170.64719 279.47095Q171.02283 279.7582 171.38744 279.70297Q171.87357 279.6367 172.34866 279.1616Q172.86794 278.6423 172.93423 278.1562Q173.01157 277.659 172.7464 277.19495Q172.58067 276.89664 171.84042 276.1785Q171.92882 277.23914 171.19962 277.96835Q170.29362 278.87433 169.14458 278.71967Q167.98448 278.55392 167.0785 277.64795Q166.44873 277.0182 166.13937 276.26688Q165.83002 275.49347 165.97365 274.77533Q166.11728 274.05716 166.70285 273.4716Q167.4873 272.68716 168.6253 272.8087L168.09497 272.27835L168.77998 271.59335L172.58067 275.39404Q173.60818 276.42157 173.82916 277.06238Q174.05014 277.7032 173.84021 278.39926Q173.64134 279.10635 172.97842 279.76926Q172.19398 280.5537 171.3543 280.6863Q170.5146 280.81888 169.8075 280.08966ZM167.78561 276.83035Q168.6474 277.69214 169.38765 277.74738Q170.1279 277.8026 170.64719 277.28336Q171.16646 276.76407 171.11122 276.0238Q171.06703 275.27252 170.22734 274.43283Q169.42079 273.62628 168.6474 273.5821Q167.88504 273.52682 167.37682 274.03506Q166.87962 274.53226 166.93488 275.29462Q166.99011 276.03485 167.78561 276.83035Z" fill-rule="nonzero"/><path fill="#000000" d="M194.21335 307.87677L189.81604 303.47943L190.48999 302.80548L191.15291 303.46838Q190.94298 302.75024 191.00928 302.3967Q191.07556 302.02103 191.34073 301.75586Q191.71638 301.38022 192.3351 301.22556L192.77704 302.17572Q192.3351 302.2862 192.06993 302.55136Q191.81583 302.80548 191.77162 303.15903Q191.72743 303.49048 191.91525 303.833Q192.18042 304.36334 192.64445 304.82736L194.95361 307.1365L194.21335 307.87677ZM199.9365 302.15363L199.28464 301.50177Q199.51666 302.77234 198.63277 303.65622Q198.24608 304.0429 197.75993 304.2418Q197.2738 304.41858 196.8871 304.36334Q196.48935 304.29703 196.09161 304.03186Q195.8375 303.86615 195.35135 303.38L192.6334 300.66208L193.38472 299.91077L195.82645 302.3525Q196.40097 302.92703 196.65508 303.09274Q197.00864 303.31372 197.40639 303.26953Q197.80414 303.20322 198.14664 302.86072Q198.47809 302.52927 198.59962 302.0763Q198.72116 301.6012 198.54439 301.18134Q198.37866 300.75046 197.81519 300.18698L195.46184 297.83365L196.20209 297.09338L200.59941 301.4907L199.9365 302.15363ZM200.3895 299.07108L201.00821 298.23138Q201.51645 298.60703 202.02467 298.56284Q202.54396 298.5076 203.06323 297.9883Q203.57147 297.48007 203.61566 297.03815Q203.65987 296.5741 203.37259 296.28683Q203.11848 296.0327 202.75388 296.11008Q202.49976 296.1653 201.73741 296.6183Q200.7099 297.22598 200.24586 297.40274Q199.78181 297.55743 199.35092 297.45798Q198.92003 297.35855 198.58858 297.0271Q198.30132 296.73984 198.17978 296.35315Q198.05824 295.96643 198.12454 295.5687Q198.17978 295.2704 198.38971 294.88367Q198.59962 294.49698 198.95319 294.14343Q199.46141 293.6352 200.00279 293.40317Q200.54417 293.14905 200.98611 293.21536Q201.42805 293.28165 201.91418 293.6352L201.28442 294.46384Q200.90877 294.17657 200.47787 294.2318Q200.04698 294.26495 199.60504 294.7069Q199.09682 295.21515 199.05261 295.61288Q198.99738 295.99957 199.22939 296.2316Q199.37302 296.37524 199.5719 296.39734Q199.79286 296.41943 200.05803 296.30893Q200.2127 296.24265 200.90877 295.83386Q201.92523 295.25934 202.36717 295.08255Q202.80913 294.90576 203.24002 294.98312Q203.67091 295.06046 204.0576 295.44714Q204.43326 295.8228 204.54375 296.37524Q204.65422 296.90555 204.43326 297.5022Q204.20123 298.08777 203.68196 298.60703Q202.82018 299.4688 202.01363 299.56827Q201.20708 299.6456 200.3895 299.07108ZM207.91354 292.85074L208.6759 293.39212Q208.42178 293.7788 208.17871 294.02188Q207.76991 294.4307 207.42741 294.53012Q207.07385 294.6185 206.7645 294.50803Q206.46619 294.3865 205.79222 293.71252L203.26212 291.1824L202.72073 291.7238L202.14621 291.14926L202.68759 290.60788L201.59378 289.5141L201.89209 288.33188L203.42784 289.86765L204.17914 289.11633L204.75366 289.69086L204.00237 290.44217L206.57668 293.01648Q206.89708 293.33688 207.01862 293.39212Q207.1512 293.4363 207.29483 293.40317Q207.43846 293.37003 207.60419 293.20428Q207.73677 293.07172 207.91354 292.85074ZM206.95233 291.49176L206.20102 290.74048L208.49911 288.44238L209.25043 289.19366L206.95233 291.49176ZM211.87997 290.21014L205.80328 284.13345L206.55458 283.38214L212.63127 289.45883L211.87997 290.21014ZM214.0013 288.08884L207.92459 282.01212L208.6759 281.26083L214.7526 287.33752L214.0013 288.08884ZM217.36005 284.73007L211.2944 282.00107L212.07884 281.21664L215.65858 282.896Q216.23311 283.18326 216.81868 283.5037Q216.5756 283.06174 216.26625 282.39883L214.56477 278.7307L215.32712 277.96835L218.0561 284.034L217.36005 284.73007ZM219.68025 282.40988L215.28293 278.01254L215.94585 277.34964L216.56456 277.96835Q216.44302 277.42697 216.5977 276.89664Q216.74133 276.3553 217.18327 275.91333Q217.66942 275.4272 218.17764 275.3167Q218.69693 275.19516 219.18306 275.43823Q218.95105 274.14557 219.77968 273.31693Q220.4426 272.65402 221.1497 272.67612Q221.85681 272.67612 222.61916 273.43845L225.6354 276.4547L224.89516 277.19495L222.12198 274.42178Q221.68004 273.97983 221.40382 273.8583Q221.13866 273.7257 220.8293 273.79202Q220.51994 273.8583 220.25478 274.12347Q219.79073 274.5875 219.79073 275.2062Q219.80179 275.8139 220.48679 276.4989L223.039 279.05112L222.2877 279.80243L219.42613 276.94086Q218.92894 276.44366 218.49805 276.38843Q218.06715 276.31107 217.65837 276.71988Q217.33795 277.04028 217.23853 277.47116Q217.13908 277.90207 217.33795 278.344Q217.53683 278.78595 218.13345 279.38257L220.4205 281.66962L219.68025 282.40988Z" fill-rule="nonzero"/><path fill="#000000" d="M232.28627 322.726L227.88895 318.32867L228.56291 317.65472L229.22583 318.31763Q229.0159 317.5995 229.0822 317.2459Q229.14848 316.87027 229.41365 316.6051Q229.7893 316.22946 230.40802 316.07477L230.84996 317.02496Q230.40802 317.13544 230.14285 317.4006Q229.88873 317.65472 229.84454 318.00827Q229.80035 318.33972 229.98817 318.68222Q230.25334 319.21255 230.71738 319.6766L233.02652 321.98575L232.28627 322.726ZM238.00941 317.00287L237.35756 316.35098Q237.58957 317.62158 236.70569 318.50546Q236.31898 318.89215 235.83286 319.09103Q235.34673 319.2678 234.96002 319.21255Q234.56227 319.14627 234.16452 318.8811Q233.91042 318.7154 233.42427 318.22925L230.70633 315.5113L231.45763 314.76L233.89937 317.20172Q234.47389 317.77625 234.728 317.942Q235.08156 318.16296 235.47931 318.11874Q235.87704 318.05246 236.21956 317.70996Q236.55101 317.3785 236.67255 316.9255Q236.79408 316.45044 236.61731 316.03058Q236.45157 315.5997 235.88809 315.03622L233.53476 312.68286L234.27501 311.94263L238.67233 316.33994L238.00941 317.00287ZM238.4624 313.92032L239.08113 313.08063Q239.58936 313.45627 240.0976 313.41208Q240.61688 313.35684 241.13615 312.83755Q241.6444 312.3293 241.68858 311.8874Q241.73277 311.42334 241.44551 311.13608Q241.1914 310.88196 240.8268 310.9593Q240.57268 311.01456 239.81033 311.46753Q238.78282 312.0752 238.31877 312.25198Q237.85474 312.40665 237.42384 312.30722Q236.99295 312.2078 236.6615 311.87634Q236.37424 311.58908 236.2527 311.20236Q236.13116 310.81567 236.19746 310.41794Q236.2527 310.1196 236.46262 309.7329Q236.67255 309.34622 237.0261 308.99268Q237.53433 308.48444 238.07571 308.2524Q238.6171 307.9983 239.05904 308.06458Q239.50098 308.1309 239.9871 308.48444L239.35735 309.31308Q238.98169 309.02582 238.5508 309.08105Q238.1199 309.1142 237.67796 309.55615Q237.16972 310.06436 237.12553 310.46213Q237.0703 310.84882 237.3023 311.08084Q237.44594 311.22446 237.64482 311.24655Q237.86578 311.26865 238.13095 311.15817Q238.28563 311.0919 238.98169 310.68307Q239.99815 310.10855 240.4401 309.9318Q240.88203 309.755 241.31293 309.83234Q241.74382 309.9097 242.13052 310.2964Q242.50618 310.67203 242.61667 311.22446Q242.72714 311.7548 242.50618 312.3514Q242.27415 312.93698 241.75488 313.45627Q240.8931 314.31805 240.08655 314.4175Q239.28 314.49484 238.4624 313.92032ZM245.98647 307.69998L246.74881 308.24136Q246.4947 308.62805 246.25163 308.87112Q245.84283 309.27994 245.50034 309.37936Q245.14677 309.46774 244.83742 309.35727Q244.53911 309.23572 243.86514 308.56177L241.33504 306.03165L240.79366 306.57303L240.21913 305.9985L240.76051 305.45712L239.6667 304.3633L239.96501 303.18112L241.50076 304.7169L242.25206 303.96558L242.82658 304.5401L242.07529 305.2914L244.6496 307.86572Q244.97 308.18613 245.09154 308.24136Q245.22412 308.28555 245.36775 308.2524Q245.51138 308.21927 245.67711 308.05353Q245.8097 307.92096 245.98647 307.69998ZM245.02524 306.341L244.27394 305.58972L246.57204 303.29163L247.32335 304.0429L245.02524 306.341ZM251.23453 300.55157L252.06317 299.9218Q252.69293 300.79465 252.62665 301.72272Q252.56035 302.6508 251.8422 303.36896Q250.93622 304.27493 249.79822 304.2418Q248.66022 304.18655 247.55536 303.0817Q246.84825 302.37457 246.54994 301.61224Q246.25163 300.8278 246.46155 300.08752Q246.68253 299.33624 247.25705 298.76172Q247.96416 298.0546 248.78175 297.96622Q249.59933 297.85574 250.40588 298.3971L249.78717 299.2368Q249.24579 298.8943 248.75966 298.93848Q248.26247 298.97162 247.88681 299.3473Q247.32335 299.91077 247.37859 300.6731Q247.42278 301.4244 248.29561 302.29724Q249.19055 303.19217 249.9308 303.2474Q250.67105 303.30267 251.21243 302.7613Q251.65437 302.31934 251.67647 301.7669Q251.70961 301.20343 251.23453 300.55157ZM254.20659 300.8057L249.80927 296.40836L250.48323 295.7344L251.14613 296.3973Q250.93622 295.67917 251.0025 295.32562Q251.0688 294.94995 251.33397 294.68478Q251.70961 294.30914 252.32834 294.15448L252.77028 295.10464Q252.32834 295.21512 252.06317 295.4803Q251.80905 295.7344 251.76486 296.08795Q251.72066 296.41943 251.9085 296.76193Q252.17365 297.29227 252.6377 297.7563L254.94684 300.06543L254.20659 300.8057ZM259.3773 294.55222Q259.311 295.32562 259.06793 295.85596Q258.83594 296.3752 258.39398 296.81717Q257.66476 297.54636 256.92453 297.57953Q256.18427 297.61267 255.63185 297.06024Q255.31143 296.73984 255.18991 296.33102Q255.05733 295.9112 255.1457 295.51343Q255.22305 295.10464 255.44402 294.729Q255.58765 294.4528 255.9854 293.94455Q256.78088 292.95016 257.0571 292.3646Q256.90244 292.20993 256.8693 292.1768Q256.40524 291.71274 256.0075 291.73483Q255.47717 291.77902 254.9137 292.3425Q254.39441 292.8618 254.32812 293.30374Q254.25078 293.73462 254.59328 294.3202L253.76465 294.94995Q253.40004 294.38647 253.3448 293.86722Q253.28955 293.34793 253.56577 292.76236Q253.84198 292.1768 254.40546 291.6133Q254.96893 291.04984 255.45506 290.82886Q255.94121 290.60788 256.30582 290.64102Q256.6704 290.67416 257.04605 290.91724Q257.26703 291.07193 257.76422 291.56912L258.75858 292.56348Q259.79715 293.60205 260.11755 293.83405Q260.449 294.05502 260.84677 294.16553L260.06232 294.94995Q259.71982 294.82843 259.3773 294.55222ZM257.64267 292.95016Q257.39963 293.5247 256.7146 294.4528Q256.31686 294.9831 256.2174 295.2593Q256.10693 295.52448 256.15112 295.78964Q256.20636 296.04376 256.40524 296.24265Q256.70355 296.54095 257.1234 296.51886Q257.5543 296.48572 257.9852 296.0548Q258.41608 295.62393 258.55972 295.10464Q258.7144 294.5743 258.53763 294.08817Q258.40503 293.71252 257.91888 293.22638L257.64267 292.95016ZM261.99582 293.01648L257.59848 288.61914L258.2614 287.95624L258.88013 288.57495Q258.6481 287.37067 259.56512 286.45364Q259.96286 286.05588 260.43796 285.86807Q260.9241 285.6692 261.32184 285.73547Q261.7196 285.80176 262.09525 286.04483Q262.33832 286.22162 262.8576 286.7409L265.56448 289.44778L264.82425 290.18805L262.15048 287.51428Q261.68646 287.05026 261.37708 286.91766Q261.06772 286.7851 260.71417 286.87347Q260.34958 286.9508 260.05127 287.2491Q259.57617 287.7242 259.53198 288.38712Q259.4878 289.02795 260.32748 289.86765L262.73605 292.2762L261.99582 293.01648ZM268.53656 283.6473L269.39835 282.96228Q269.8955 283.81302 269.774 284.68585Q269.65244 285.55872 268.8901 286.32104Q267.92886 287.2823 266.75772 287.26016Q265.59763 287.22702 264.5259 286.15533Q263.42108 285.05048 263.3879 283.8683Q263.34372 282.67502 264.24973 281.76904Q265.1336 280.88516 266.28265 280.92935Q267.44275 280.9625 268.53656 282.0563Q268.60284 282.1226 268.7354 282.2552L265.454 285.5366Q266.2274 286.22162 266.9787 286.2437Q267.71896 286.25476 268.2714 285.70233Q268.68018 285.29355 268.7575 284.79636Q268.83487 284.27707 268.53656 283.6473ZM264.89053 284.88474L267.3433 282.43198Q266.73563 281.9127 266.2274 281.8685Q265.43192 281.8022 264.86844 282.36566Q264.34915 282.88495 264.3381 283.58102Q264.3381 284.26602 264.89053 284.88474ZM271.8732 283.13907L265.7965 277.06238L266.54782 276.31107L272.6245 282.38776L271.8732 283.13907ZM268.8017 275.78073L267.9399 274.91895L268.69122 274.16766L269.553 275.02945L268.8017 275.78073ZM274.01663 280.99567L269.6193 276.59833L270.3706 275.84705L274.7679 280.24435L274.01663 280.99567ZM276.31473 278.69754L272.4919 274.87476L271.829 275.53766L271.2545 274.96313L271.9174 274.30023L271.44232 273.82513Q271.00037 273.3832 270.8678 273.09595Q270.67996 272.68713 270.76834 272.2452Q270.8678 271.7922 271.3539 271.3061Q271.67432 270.9857 272.12732 270.68735L272.65765 271.43866Q272.3925 271.63754 272.18256 271.84747Q271.84006 272.18997 271.84006 272.47723Q271.8511 272.75345 272.24887 273.15118L272.65765 273.56L273.51944 272.69818L274.09396 273.27274L273.23218 274.13452L277.05496 277.9573L276.31473 278.69754ZM279.2205 274.46597L279.98285 275.00735Q279.72873 275.39404 279.48566 275.63712Q279.07684 276.0459 278.73434 276.14536Q278.3808 276.23373 278.07144 276.12323Q277.77313 276.0017 277.09915 275.32776L274.56906 272.79764L274.02768 273.33902L273.45316 272.7645L273.99454 272.2231L272.90073 271.1293L273.19904 269.9471L274.73477 271.48285L275.48608 270.73157L276.0606 271.3061L275.3093 272.05737L277.8836 274.63168Q278.204 274.9521 278.32556 275.00735Q278.45813 275.05154 278.60178 275.0184Q278.7454 274.98526 278.91113 274.81952Q279.0437 274.68692 279.2205 274.46597Z" fill-rule="nonzero"/><path fill="#000000" d="M318.67447 289.98917L319.51416 289.37045Q319.8898 289.6577 320.2544 289.60248Q320.74054 289.5362 321.21564 289.0611Q321.73492 288.5418 321.8012 288.05566Q321.87854 287.5585 321.61337 287.09445Q321.44766 286.79614 320.7074 286.07797Q320.79578 287.13864 320.0666 287.86786Q319.1606 288.77383 318.01157 288.61914Q316.85144 288.45343 315.94547 287.54745Q315.3157 286.91766 315.00635 286.16638Q314.697 285.39297 314.8406 284.67484Q314.98425 283.95667 315.56982 283.3711Q316.35428 282.58664 317.49228 282.7082L316.96194 282.17786L317.64694 281.49283L321.44766 285.29355Q322.47516 286.32104 322.69614 286.96188Q322.9171 287.6027 322.70718 288.29874Q322.5083 289.00586 321.8454 289.66876Q321.06094 290.45322 320.22125 290.5858Q319.38156 290.71838 318.67447 289.98917ZM316.6526 286.72986Q317.51437 287.59164 318.2546 287.64688Q318.99487 287.70212 319.51416 287.18283Q320.03345 286.66357 319.97818 285.9233Q319.934 285.172 319.0943 284.3323Q318.28775 283.5258 317.51437 283.48157Q316.752 283.42633 316.24377 283.93457Q315.7466 284.43176 315.80185 285.1941Q315.8571 285.93436 316.6526 286.72986ZM323.97775 281.99002L322.30945 280.3217L320.6632 281.96793L319.96713 281.27188L321.61337 279.62564L319.96713 277.9794L320.67426 277.2723L322.3205 278.91852L323.97775 277.26126L324.67383 277.9573L323.01654 279.6146L324.68488 281.28293L323.97775 281.99002ZM328.92752 277.04028L327.2592 275.37195L325.61295 277.0182L324.9169 276.3221L326.5631 274.6759L324.9169 273.02966L325.624 272.32254L327.27023 273.96878L328.92752 272.3115L329.62357 273.00757L327.96628 274.66486L329.6346 276.33316L328.92752 277.04028Z" fill-rule="nonzero"/><path fill="#000000" d="M356.37173 301.2587L357.20035 300.62894Q357.83014 301.50177 357.76382 302.42984Q357.69754 303.3579 356.9794 304.07608Q356.07343 304.98206 354.93542 304.9489Q353.79742 304.89365 352.69257 303.78882Q351.98544 303.0817 351.68713 302.31934Q351.38882 301.5349 351.59875 300.79465Q351.81973 300.04333 352.39426 299.4688Q353.10135 298.76172 353.91895 298.67334Q354.73654 298.56284 355.5431 299.10422L354.92438 299.9439Q354.383 299.6014 353.89685 299.6456Q353.39966 299.67874 353.02402 300.0544Q352.46054 300.61786 352.51578 301.38022Q352.55997 302.13153 353.4328 303.00436Q354.32773 303.8993 355.068 303.95453Q355.80826 304.00977 356.34964 303.46838Q356.79156 303.02646 356.81366 302.47403Q356.8468 301.91055 356.37173 301.2587ZM359.33273 301.52386L353.25604 295.44714L354.00732 294.69586L360.08405 300.77255L359.33273 301.52386ZM363.8074 295.96643Q363.7411 296.73984 363.49805 297.27017Q363.26602 297.78946 362.82407 298.23138Q362.09488 298.9606 361.3546 298.99374Q360.61435 299.0269 360.06195 298.47446Q359.74152 298.15405 359.62 297.74524Q359.4874 297.3254 359.5758 296.92767Q359.65314 296.51886 359.8741 296.14322Q360.01773 295.867 360.4155 295.35876Q361.211 294.3644 361.48718 293.77884Q361.33252 293.62415 361.29938 293.591Q360.83533 293.12695 360.4376 293.14905Q359.90726 293.19327 359.34378 293.7567Q358.8245 294.276 358.7582 294.71796Q358.68088 295.14883 359.02338 295.7344L358.19473 296.3642Q357.83014 295.80072 357.77487 295.28143Q357.71964 294.76215 357.99585 294.17657Q358.27206 293.591 358.83554 293.02753Q359.39902 292.46405 359.88516 292.24307Q360.3713 292.0221 360.7359 292.05527Q361.1005 292.0884 361.47614 292.33145Q361.6971 292.48615 362.1943 292.98334L363.18866 293.9777Q364.22723 295.01627 364.54764 295.2483Q364.8791 295.46924 365.27686 295.57974L364.4924 296.3642Q364.1499 296.24265 363.8074 295.96643ZM362.07278 294.3644Q361.8297 294.93893 361.14468 295.867Q360.74695 296.39734 360.64752 296.67355Q360.53702 296.93872 360.5812 297.2039Q360.63647 297.45798 360.83533 297.65686Q361.13364 297.95517 361.5535 297.93307Q361.98438 297.89993 362.41528 297.46902Q362.84616 297.03815 362.9898 296.51886Q363.14447 295.98853 362.9677 295.5024Q362.8351 295.12674 362.349 294.64062L362.07278 294.3644ZM366.4259 294.4307L362.02856 290.03336L362.6915 289.37045L363.3102 289.98917Q363.0782 288.78488 363.9952 287.86786Q364.39297 287.4701 364.86804 287.2823Q365.3542 287.0834 365.75192 287.1497Q366.1497 287.216 366.52533 287.45905Q366.7684 287.63583 367.2877 288.15512L369.99457 290.862L369.25433 291.60226L366.58057 288.92853Q366.11655 288.46448 365.8072 288.33188Q365.49783 288.1993 365.14426 288.2877Q364.77966 288.36505 364.48135 288.66336Q364.00626 289.13843 363.96207 289.80136Q363.91788 290.44217 364.75757 291.28186L367.16614 293.69043L366.4259 294.4307ZM371.59662 289.98917L372.4363 289.37045Q372.81195 289.6577 373.17654 289.60248Q373.6627 289.5362 374.1378 289.0611Q374.65707 288.5418 374.72336 288.0557Q374.8007 287.5585 374.53552 287.09445Q374.3698 286.79614 373.62955 286.078Q373.71793 287.13864 372.98874 287.86786Q372.08276 288.77383 370.93372 288.61917Q369.7736 288.45343 368.8676 287.54745Q368.23785 286.9177 367.9285 286.16638Q367.61914 285.39297 367.76276 284.67484Q367.9064 283.95667 368.49197 283.3711Q369.27643 282.58664 370.41443 282.7082L369.8841 282.17786L370.5691 281.49286L374.3698 285.29355Q375.3973 286.32104 375.6183 286.96188Q375.83926 287.6027 375.62933 288.29874Q375.43045 289.00586 374.76755 289.66876Q373.9831 290.45322 373.1434 290.5858Q372.3037 290.71838 371.59662 289.98917ZM369.57474 286.72986Q370.43652 287.59164 371.17676 287.64688Q371.91702 287.70212 372.4363 287.18283Q372.9556 286.66357 372.90033 285.9233Q372.85614 285.172 372.01645 284.3323Q371.20993 283.5258 370.43652 283.4816Q369.67416 283.42633 369.16592 283.93457Q368.66876 284.43176 368.724 285.19412Q368.77924 285.93436 369.57474 286.72986ZM376.8999 281.99002L375.2316 280.3217L373.58536 281.96793L372.88928 281.27188L374.53552 279.62564L372.88928 277.9794L373.5964 277.2723L375.24265 278.91855L376.8999 277.26126L377.59598 277.9573L375.9387 279.6146L377.60703 281.28293L376.8999 281.99002ZM381.84967 277.04028L380.18134 275.37195L378.5351 277.0182L377.83905 276.3221L379.48526 274.6759L377.83905 273.02966L378.54614 272.32254L380.19238 273.96878L381.84967 272.3115L382.54572 273.00757L380.88843 274.66486L382.55676 276.33316L381.84967 277.04028Z" fill-rule="nonzero"/><path fill="#000000" d="M409.7579 304.02084L409.15024 303.41315L408.74146 297.3917Q408.2774 297.89993 407.9128 298.26453L406.12296 300.0544L405.5263 299.4578L409.12814 295.85596L409.6143 296.3421L410.02307 301.52386L410.06726 302.49612Q410.54236 301.95474 410.97327 301.52386L413.01724 299.4799L413.65805 300.1207L409.7579 304.02084ZM408.4763 294.87265L407.6145 294.01086L408.36578 293.25955L409.22757 294.12134L408.4763 294.87265ZM413.6912 300.08755L409.29388 295.69022L410.04517 294.93893L414.4425 299.33624L413.6912 300.08755ZM416.03348 298.47446L416.87317 297.85574Q417.2488 298.143 417.61343 298.08777Q418.09955 298.02148 418.57465 297.5464Q419.09393 297.0271 419.16022 296.54095Q419.23755 296.0438 418.9724 295.57974Q418.80667 295.28143 418.0664 294.56326Q418.15482 295.62393 417.4256 296.35315Q416.51962 297.25912 415.37057 297.10443Q414.21048 296.93872 413.3045 296.03275Q412.6747 295.40295 412.36536 294.65167Q412.056 293.87827 412.19965 293.16013Q412.34326 292.44196 412.92883 291.85638Q413.7133 291.07193 414.8513 291.19348L414.32095 290.66315L415.00598 289.97812L418.80667 293.77884Q419.8342 294.80634 420.05515 295.44717Q420.27612 296.08798 420.0662 296.78403Q419.86734 297.49115 419.2044 298.15405Q418.41998 298.9385 417.5803 299.07108Q416.7406 299.20367 416.03348 298.47446ZM414.0116 295.21515Q414.87338 296.07693 415.61365 296.13217Q416.35388 296.1874 416.87317 295.66812Q417.39246 295.14883 417.33722 294.4086Q417.29303 293.6573 416.45334 292.8176Q415.6468 292.01108 414.87338 291.96686Q414.11105 291.91162 413.6028 292.41986Q413.10562 292.91705 413.16086 293.67938Q413.2161 294.41965 414.0116 295.21515ZM418.64093 291.4918L417.88965 290.74048L420.18774 288.44238L420.93903 289.1937L418.64093 291.4918ZM423.5686 290.21014L417.49188 284.13345L418.2432 283.38214L424.3199 289.45886L423.5686 290.21014ZM425.6899 288.08884L419.61322 282.01215L420.3645 281.26083L426.44122 287.33752L425.6899 288.08884ZM429.04868 284.73007L422.98303 282.00107L423.76746 281.21664L427.3472 282.89603Q427.92172 283.1833 428.5073 283.5037Q428.26422 283.06174 427.95486 282.39883L426.2534 278.7307L427.01575 277.96835L429.74472 284.03403L429.04868 284.73007ZM431.36887 282.40988L426.97156 278.01257L427.63446 277.34964L428.25317 277.96835Q428.13165 277.42697 428.28632 276.89667Q428.42996 276.3553 428.8719 275.91333Q429.35803 275.4272 429.86627 275.3167Q430.38553 275.1952 430.87167 275.43826Q430.63965 274.14557 431.4683 273.31693Q432.13123 272.65402 432.83832 272.67612Q433.54544 272.67612 434.30777 273.43848L437.32404 276.4547L436.58377 277.19498L433.81058 274.42178Q433.36865 273.97983 433.09244 273.8583Q432.82727 273.72574 432.5179 273.79202Q432.20856 273.8583 431.9434 274.12347Q431.47934 274.58752 431.47934 275.20624Q431.4904 275.8139 432.1754 276.4989L434.72763 279.05112L433.97632 279.80243L431.11475 276.94086Q430.61755 276.44366 430.18668 276.38843Q429.75577 276.3111 429.347 276.71988Q429.02658 277.04028 428.92712 277.4712Q428.8277 277.90207 429.02658 278.34402Q429.22543 278.78595 429.82205 279.38257L432.10913 281.66962L431.36887 282.40988Z" fill-rule="nonzero"/><path fill="#000000" d="M467.62982 299.07108L467.02216 298.4634L466.61337 292.44193Q466.14932 292.95016 465.78473 293.3148L463.99487 295.10464L463.39825 294.50803L467.00006 290.9062L467.4862 291.39233L467.895 296.5741L467.93918 297.54636Q468.41428 297.00497 468.84518 296.5741L470.88916 294.53012L471.52997 295.17093L467.62982 299.07108ZM466.3482 289.92288L465.48642 289.0611L466.2377 288.30978L467.09952 289.17157L466.3482 289.92288ZM471.5631 295.1378L467.1658 290.74045L467.91708 289.98917L472.31442 294.38647L471.5631 295.1378ZM473.9054 293.5247L474.7451 292.90598Q475.12076 293.19324 475.48535 293.138Q475.9715 293.07172 476.44656 292.59662Q476.96585 292.07733 477.03214 291.5912Q477.1095 291.09402 476.84433 290.62997Q476.6786 290.33167 475.93832 289.61353Q476.02673 290.67416 475.29752 291.40338Q474.39154 292.30936 473.2425 292.15466Q472.0824 291.98895 471.17642 291.08298Q470.54666 290.4532 470.23727 289.7019Q469.92792 288.9285 470.07156 288.21036Q470.21518 287.4922 470.80075 286.90662Q471.5852 286.12216 472.7232 286.2437L472.19287 285.71338L472.8779 285.02838L476.6786 288.82907Q477.70612 289.85657 477.92706 290.4974Q478.14804 291.1382 477.9381 291.83426Q477.73926 292.54138 477.07632 293.20428Q476.2919 293.98874 475.4522 294.1213Q474.61252 294.2539 473.9054 293.5247ZM471.8835 290.26538Q472.7453 291.12717 473.48557 291.1824Q474.2258 291.23764 474.7451 290.71835Q475.26437 290.1991 475.20914 289.45883Q475.16495 288.70752 474.32526 287.86783Q473.5187 287.0613 472.7453 287.0171Q471.98297 286.96185 471.47473 287.4701Q470.97754 287.9673 471.03278 288.7296Q471.088 289.46988 471.8835 290.26538ZM476.51285 286.54202L475.76157 285.7907L478.05966 283.4926L478.81094 284.24393L476.51285 286.54202ZM481.06485 285.63605L480.45718 285.02838L480.0484 279.0069Q479.58435 279.51514 479.21976 279.87973L477.4299 281.66962L476.83328 281.073L480.4351 277.47116L480.92123 277.9573L481.33002 283.13907L481.3742 284.11133Q481.8493 283.56995 482.2802 283.13907L484.3242 281.0951L484.965 281.7359L481.06485 285.63605ZM479.78323 276.48785L478.92145 275.62607L479.67276 274.87476L480.53455 275.73654L479.78323 276.48785ZM484.99814 281.70276L480.60083 277.30542L481.3521 276.55414L485.74945 280.95145L484.99814 281.70276ZM487.34042 280.08966L488.1801 279.47095Q488.5558 279.7582 488.92038 279.70297Q489.40652 279.6367 489.8816 279.1616Q490.40088 278.6423 490.46716 278.15616Q490.54453 277.659 490.27936 277.19495Q490.11362 276.89664 489.37335 276.1785Q489.46176 277.23914 488.73254 277.96835Q487.82657 278.87433 486.67752 278.71964Q485.51743 278.55392 484.61145 277.64795Q483.9817 277.01816 483.67233 276.26688Q483.36295 275.49347 483.5066 274.77533Q483.6502 274.05716 484.23578 273.4716Q485.02023 272.68713 486.15823 272.8087L485.6279 272.27835L486.31293 271.59332L490.11362 275.39404Q491.14114 276.42154 491.3621 277.06238Q491.58307 277.7032 491.37314 278.39923Q491.1743 279.10635 490.51135 279.76926Q489.72693 280.5537 488.88724 280.68628Q488.04755 280.81888 487.34042 280.08966ZM485.31854 276.83035Q486.18033 277.69214 486.9206 277.74738Q487.66083 277.8026 488.1801 277.28333Q488.6994 276.76407 488.64417 276.0238Q488.59998 275.2725 487.76028 274.4328Q486.95374 273.62628 486.18033 273.58206Q485.418 273.52682 484.90976 274.03506Q484.41257 274.53226 484.4678 275.2946Q484.52304 276.03485 485.31854 276.83035Z" fill-rule="nonzero"/><path fill="#4285f4" d="M199.0 20.55C199.0 19.997715 199.44771 19.55 200.0 19.55L210.0 19.55C210.55229 19.55 211.0 19.997715 211.0 20.55L211.0 30.55C211.0 31.102285 210.55229 31.55 210.0 31.55L200.0 31.55C199.44771 31.55 199.0 31.102285 199.0 30.55Z" fill-rule="nonzero"/><path fill="#1a1a1a" d="M219.79688 29.55L219.79688 23.33125L220.73438 23.33125L220.73438 24.20625Q221.03125 23.7375 221.51562 23.471874Q222.0 23.190624 222.625 23.190624Q223.3125 23.190624 223.75 23.471874Q224.20312 23.753124 224.375 24.26875Q225.125 23.190624 226.29688 23.190624Q227.23438 23.190624 227.71875 23.70625Q228.21875 24.20625 228.21875 25.284374L228.21875 29.55L227.17188 29.55L227.17188 25.628124Q227.17188 25.003124 227.0625 24.721874Q226.96875 24.440624 226.70312 24.26875Q226.4375 24.096874 226.0625 24.096874Q225.40625 24.096874 224.96875 24.534374Q224.54688 24.971874 224.54688 25.940624L224.54688 29.55L223.48438 29.55L223.48438 25.503124Q223.48438 24.8 223.21875 24.45625Q222.96875 24.096874 222.39062 24.096874Q221.9375 24.096874 221.5625 24.33125Q221.1875 24.565624 221.01562 25.01875Q220.84375 25.471874 220.84375 26.315624L220.84375 29.55L219.79688 29.55ZM235.04688 27.55L236.14062 27.675Q235.89062 28.628124 235.1875 29.159374Q234.48438 29.690624 233.40625 29.690624Q232.04688 29.690624 231.23438 28.846874Q230.4375 28.003124 230.4375 26.4875Q230.4375 24.925 231.25 24.065624Q232.0625 23.190624 233.34375 23.190624Q234.59375 23.190624 235.375 24.034374Q236.17188 24.878124 236.17188 26.425Q236.17188 26.51875 236.17188 26.70625L231.53125 26.70625Q231.59375 27.7375 232.10938 28.284374Q232.625 28.815624 233.40625 28.815624Q233.98438 28.815624 234.39062 28.51875Q234.8125 28.20625 235.04688 27.55ZM231.59375 25.846874L235.0625 25.846874Q235.0 25.05 234.67188 24.659374Q234.15625 24.05 233.35938 24.05Q232.625 24.05 232.125 24.534374Q231.64062 25.01875 231.59375 25.846874ZM241.85938 28.784374Q241.26562 29.284374 240.71875 29.4875Q240.1875 29.690624 239.5625 29.690624Q238.53125 29.690624 237.98438 29.190624Q237.4375 28.690624 237.4375 27.909374Q237.4375 27.45625 237.64062 27.08125Q237.84375 26.690624 238.1875 26.471874Q238.53125 26.2375 238.95312 26.128124Q239.25 26.034374 239.89062 25.95625Q241.15625 25.815624 241.76562 25.596874Q241.76562 25.378124 241.76562 25.33125Q241.76562 24.675 241.46875 24.409374Q241.0625 24.065624 240.26562 24.065624Q239.53125 24.065624 239.17188 24.33125Q238.8125 24.58125 238.64062 25.2375L237.60938 25.096874Q237.75 24.440624 238.07812 24.034374Q238.40625 23.628124 239.01562 23.409374Q239.625 23.190624 240.42188 23.190624Q241.21875 23.190624 241.71875 23.378124Q242.21875 23.565624 242.45312 23.846874Q242.6875 24.128124 242.78125 24.565624Q242.82812 24.83125 242.82812 25.534374L242.82812 26.940624Q242.82812 28.409374 242.89062 28.8Q242.96875 29.190624 243.17188 29.55L242.0625 29.55Q241.90625 29.221874 241.85938 28.784374ZM241.76562 26.425Q241.1875 26.659374 240.04688 26.83125Q239.39062 26.925 239.125 27.05Q238.85938 27.159374 238.70312 27.378124Q238.5625 27.596874 238.5625 27.878124Q238.5625 28.3 238.875 28.58125Q239.20312 28.8625 239.8125 28.8625Q240.42188 28.8625 240.89062 28.596874Q241.375 28.33125 241.59375 27.8625Q241.76562 27.503124 241.76562 26.815624L241.76562 26.425ZM244.79688 29.55L244.79688 23.33125L245.73438 23.33125L245.73438 24.20625Q246.42188 23.190624 247.71875 23.190624Q248.28125 23.190624 248.75 23.39375Q249.23438 23.596874 249.46875 23.925Q249.70312 24.253124 249.79688 24.690624Q249.84375 24.9875 249.84375 25.721874L249.84375 29.55L248.79688 29.55L248.79688 25.76875Q248.79688 25.1125 248.67188 24.8Q248.54688 24.4875 248.23438 24.3Q247.92188 24.096874 247.5 24.096874Q246.82812 24.096874 246.32812 24.534374Q245.84375 24.95625 245.84375 26.14375L245.84375 29.55L244.79688 29.55Z" fill-rule="nonzero"/><path fill="#ea4335" d="M267.0 20.55C267.0 19.997715 267.44772 19.55 268.0 19.55L278.0 19.55C278.55228 19.55 279.0 19.997715 279.0 20.55L279.0 30.55C279.0 31.102285 278.55228 31.55 278.0 31.55L268.0 31.55C267.44772 31.55 267.0 31.102285 267.0 30.55Z" fill-rule="nonzero"/><path fill="#1a1a1a" d="M287.79688 29.55L287.79688 23.33125L288.73438 23.33125L288.73438 24.20625Q289.03125 23.7375 289.51562 23.471874Q290.0 23.190624 290.625 23.190624Q291.3125 23.190624 291.75 23.471874Q292.20312 23.753124 292.375 24.26875Q293.125 23.190624 294.29688 23.190624Q295.23438 23.190624 295.71875 23.70625Q296.21875 24.20625 296.21875 25.284374L296.21875 29.55L295.17188 29.55L295.17188 25.628124Q295.17188 25.003124 295.0625 24.721874Q294.96875 24.440624 294.70312 24.26875Q294.4375 24.096874 294.0625 24.096874Q293.40625 24.096874 292.96875 24.534374Q292.54688 24.971874 292.54688 25.940624L292.54688 29.55L291.48438 29.55L291.48438 25.503124Q291.48438 24.8 291.21875 24.45625Q290.96875 24.096874 290.39062 24.096874Q289.9375 24.096874 289.5625 24.33125Q289.1875 24.565624 289.01562 25.01875Q288.84375 25.471874 288.84375 26.315624L288.84375 29.55L287.79688 29.55ZM303.04688 27.55L304.14062 27.675Q303.89062 28.628124 303.1875 29.159374Q302.48438 29.690624 301.40625 29.690624Q300.04688 29.690624 299.23438 28.846874Q298.4375 28.003124 298.4375 26.4875Q298.4375 24.925 299.25 24.065624Q300.0625 23.190624 301.34375 23.190624Q302.59375 23.190624 303.375 24.034374Q304.17188 24.878124 304.17188 26.425Q304.17188 26.51875 304.17188 26.70625L299.53125 26.70625Q299.59375 27.7375 300.10938 28.284374Q300.625 28.815624 301.40625 28.815624Q301.98438 28.815624 302.39062 28.51875Q302.8125 28.20625 303.04688 27.55ZM299.59375 25.846874L303.0625 25.846874Q303.0 25.05 302.67188 24.659374Q302.15625 24.05 301.35938 24.05Q300.625 24.05 300.125 24.534374Q299.64062 25.01875 299.59375 25.846874ZM309.82812 29.55L309.82812 28.76875Q309.23438 29.690624 308.09375 29.690624Q307.34375 29.690624 306.71875 29.284374Q306.09375 28.8625 305.75 28.128124Q305.40625 27.39375 305.40625 26.440624Q305.40625 25.51875 305.71875 24.753124Q306.03125 23.9875 306.65625 23.596874Q307.28125 23.190624 308.04688 23.190624Q308.60938 23.190624 309.04688 23.425Q309.48438 23.659374 309.76562 24.034374L309.76562 20.95625L310.8125 20.95625L310.8125 29.55L309.82812 29.55ZM306.5 26.440624Q306.5 27.64375 307.0 28.2375Q307.5 28.815624 308.1875 28.815624Q308.875 28.815624 309.35938 28.253124Q309.84375 27.690624 309.84375 26.534374Q309.84375 25.253124 309.34375 24.659374Q308.85938 24.065624 308.14062 24.065624Q307.4375 24.065624 306.96875 24.64375Q306.5 25.20625 306.5 26.440624ZM312.79688 22.175L312.79688 20.95625L313.85938 20.95625L313.85938 22.175L312.79688 22.175ZM312.79688 29.55L312.79688 23.33125L313.85938 23.33125L313.85938 29.55L312.79688 29.55ZM319.85938 28.784374Q319.26562 29.284374 318.71875 29.4875Q318.1875 29.690624 317.5625 29.690624Q316.53125 29.690624 315.98438 29.190624Q315.4375 28.690624 315.4375 27.909374Q315.4375 27.45625 315.64062 27.08125Q315.84375 26.690624 316.1875 26.471874Q316.53125 26.2375 316.95312 26.128124Q317.25 26.034374 317.89062 25.95625Q319.15625 25.815624 319.76562 25.596874Q319.76562 25.378124 319.76562 25.33125Q319.76562 24.675 319.46875 24.409374Q319.0625 24.065624 318.26562 24.065624Q317.53125 24.065624 317.17188 24.33125Q316.8125 24.58125 316.64062 25.2375L315.60938 25.096874Q315.75 24.440624 316.07812 24.034374Q316.40625 23.628124 317.01562 23.409374Q317.625 23.190624 318.42188 23.190624Q319.21875 23.190624 319.71875 23.378124Q320.21875 23.565624 320.45312 23.846874Q320.6875 24.128124 320.78125 24.565624Q320.82812 24.83125 320.82812 25.534374L320.82812 26.940624Q320.82812 28.409374 320.89062 28.8Q320.96875 29.190624 321.17188 29.55L320.0625 29.55Q319.90625 29.221874 319.85938 28.784374ZM319.76562 26.425Q319.1875 26.659374 318.04688 26.83125Q317.39062 26.925 317.125 27.05Q316.85938 27.159374 316.70312 27.378124Q316.5625 27.596874 316.5625 27.878124Q316.5625 28.3 316.875 28.58125Q317.20312 28.8625 317.8125 28.8625Q318.42188 28.8625 318.89062 28.596874Q319.375 28.33125 319.59375 27.8625Q319.76562 27.503124 319.76562 26.815624L319.76562 26.425ZM322.79688 29.55L322.79688 23.33125L323.73438 23.33125L323.73438 24.20625Q324.42188 23.190624 325.71875 23.190624Q326.28125 23.190624 326.75 23.39375Q327.23438 23.596874 327.46875 23.925Q327.70312 24.253124 327.79688 24.690624Q327.84375 24.9875 327.84375 25.721874L327.84375 29.55L326.79688 29.55L326.79688 25.76875Q326.79688 25.1125 326.67188 24.8Q326.54688 24.4875 326.23438 24.3Q325.92188 24.096874 325.5 24.096874Q324.82812 24.096874 324.32812 24.534374Q323.84375 24.95625 323.84375 26.14375L323.84375 29.55L322.79688 29.55Z" fill-rule="nonzero"/><path fill="#fbbc04" d="M345.0 20.55C345.0 19.997715 345.44772 19.55 346.0 19.55L356.0 19.55C356.55228 19.55 357.0 19.997715 357.0 20.55L357.0 30.55C357.0 31.102285 356.55228 31.55 356.0 31.55L346.0 31.55C345.44772 31.55 345.0 31.102285 345.0 30.55Z" fill-rule="nonzero"/><path fill="#1a1a1a" d="M365.375 27.690624L366.40625 27.534374Q366.5 28.159374 366.89062 28.4875Q367.29688 28.815624 368.03125 28.815624Q368.75 28.815624 369.09375 28.534374Q369.45312 28.2375 369.45312 27.83125Q369.45312 27.471874 369.14062 27.26875Q368.92188 27.128124 368.0625 26.909374Q366.90625 26.6125 366.45312 26.409374Q366.01562 26.190624 365.78125 25.815624Q365.54688 25.440624 365.54688 24.971874Q365.54688 24.565624 365.73438 24.20625Q365.92188 23.846874 366.25 23.6125Q366.5 23.440624 366.92188 23.315624Q367.34375 23.190624 367.84375 23.190624Q368.5625 23.190624 369.10938 23.409374Q369.67188 23.6125 369.9375 23.971874Q370.20312 24.33125 370.29688 24.925L369.26562 25.065624Q369.20312 24.596874 368.85938 24.33125Q368.53125 24.05 367.90625 24.05Q367.1875 24.05 366.875 24.3Q366.5625 24.534374 366.5625 24.8625Q366.5625 25.065624 366.6875 25.221874Q366.82812 25.39375 367.09375 25.503124Q367.25 25.565624 368.03125 25.76875Q369.15625 26.08125 369.59375 26.26875Q370.03125 26.45625 370.28125 26.815624Q370.53125 27.175 370.53125 27.721874Q370.53125 28.253124 370.21875 28.721874Q369.92188 29.175 369.34375 29.440624Q368.76562 29.690624 368.03125 29.690624Q366.8125 29.690624 366.17188 29.190624Q365.54688 28.675 365.375 27.690624ZM375.09375 28.6125L375.25 29.534374Q374.79688 29.628124 374.45312 29.628124Q373.875 29.628124 373.5625 29.45625Q373.25 29.26875 373.10938 28.971874Q372.98438 28.675 372.98438 27.721874L372.98438 24.14375L372.21875 24.14375L372.21875 23.33125L372.98438 23.33125L372.98438 21.784374L374.03125 21.159374L374.03125 23.33125L375.09375 23.33125L375.09375 24.14375L374.03125 24.14375L374.03125 27.784374Q374.03125 28.2375 374.07812 28.3625Q374.14062 28.4875 374.26562 28.565624Q374.39062 28.64375 374.625 28.64375Q374.8125 28.64375 375.09375 28.6125ZM379.82812 29.55L379.82812 28.76875Q379.23438 29.690624 378.09375 29.690624Q377.34375 29.690624 376.71875 29.284374Q376.09375 28.8625 375.75 28.128124Q375.40625 27.39375 375.40625 26.440624Q375.40625 25.51875 375.71875 24.753124Q376.03125 23.9875 376.65625 23.596874Q377.28125 23.190624 378.04688 23.190624Q378.60938 23.190624 379.04688 23.425Q379.48438 23.659374 379.76562 24.034374L379.76562 20.95625L380.8125 20.95625L380.8125 29.55L379.82812 29.55ZM376.5 26.440624Q376.5 27.64375 377.0 28.2375Q377.5 28.815624 378.1875 28.815624Q378.875 28.815624 379.35938 28.253124Q379.84375 27.690624 379.84375 26.534374Q379.84375 25.253124 379.34375 24.659374Q378.85938 24.065624 378.14062 24.065624Q377.4375 24.065624 376.96875 24.64375Q376.5 25.20625 376.5 26.440624ZM386.82812 29.55L386.82812 28.76875Q386.23438 29.690624 385.09375 29.690624Q384.34375 29.690624 383.71875 29.284374Q383.09375 28.8625 382.75 28.128124Q382.40625 27.39375 382.40625 26.440624Q382.40625 25.51875 382.71875 24.753124Q383.03125 23.9875 383.65625 23.596874Q384.28125 23.190624 385.04688 23.190624Q385.60938 23.190624 386.04688 23.425Q386.48438 23.659374 386.76562 24.034374L386.76562 20.95625L387.8125 20.95625L387.8125 29.55L386.82812 29.55ZM383.5 26.440624Q383.5 27.64375 384.0 28.2375Q384.5 28.815624 385.1875 28.815624Q385.875 28.815624 386.35938 28.253124Q386.84375 27.690624 386.84375 26.534374Q386.84375 25.253124 386.34375 24.659374Q385.85938 24.065624 385.14062 24.065624Q384.4375 24.065624 383.96875 24.64375Q383.5 25.20625 383.5 26.440624ZM394.04688 27.55L395.14062 27.675Q394.89062 28.628124 394.1875 29.159374Q393.48438 29.690624 392.40625 29.690624Q391.04688 29.690624 390.23438 28.846874Q389.4375 28.003124 389.4375 26.4875Q389.4375 24.925 390.25 24.065624Q391.0625 23.190624 392.34375 23.190624Q393.59375 23.190624 394.375 24.034374Q395.17188 24.878124 395.17188 26.425Q395.17188 26.51875 395.17188 26.70625L390.53125 26.70625Q390.59375 27.7375 391.10938 28.284374Q391.625 28.815624 392.40625 28.815624Q392.98438 28.815624 393.39062 28.51875Q393.8125 28.20625 394.04688 27.55ZM390.59375 25.846874L394.0625 25.846874Q394.0 25.05 393.67188 24.659374Q393.15625 24.05 392.35938 24.05Q391.625 24.05 391.125 24.534374Q390.64062 25.01875 390.59375 25.846874ZM398.51562 29.55L396.15625 23.33125L397.26562 23.33125L398.60938 27.05Q398.8125 27.659374 399.0 28.3Q399.14062 27.815624 399.39062 27.128124L400.78125 23.33125L401.85938 23.33125L399.5 29.55L398.51562 29.55Z" fill-rule="nonzero"/></svg>